<?xml version="1.0" encoding="UTF-8"?>
<svg id="Livello_1" xmlns="http://www.w3.org/2000/svg" version="1.1" viewBox="0 0 800 800">
  <!-- Generator: Adobe Illustrator 29.6.1, SVG Export Plug-In . SVG Version: 2.1.1 Build 9)  -->
  <defs>
    <style>
      .st0 {
        fill: #272525;
      }

      .st1 {
        fill: #b68946;
      }

      .st2 {
        fill: #f4e281;
      }

      .st3 {
        fill: #6ab6a3;
      }

      .st4 {
        fill: #659152;
      }

      .st5 {
        fill: #b68947;
      }
    </style>
  </defs>
  <path class="st5" d="M407.21,259.18q-5.3,2.53-11.55,5.83"/>
  <path class="st5" d="M395.66,259.18q5.3,2.53,11.55,5.83"/>
  <path class="st3" d="M401.43,203.13"/>
  <path class="st3" d="M401.43,203.13"/>
  <g id="nz6Z7I.tif">
    <g>
      <path class="st1" d="M649.45,391.81c-1.43-4.98-2.76-9.86-4.22-14.71-9.71-32.18-23.46-62.49-42.01-90.57-12.34-18.68-26.52-35.85-42.84-51.2-25.01-23.53-53.39-41.58-85.99-52.72-11.45-3.91-23.17-6.73-35.12-8.69-14.02-2.3-28.14-2.92-42.28-2.27-31.56,1.44-61.27,9.88-89.21,24.57-23.74,12.47-44.68,28.66-63.29,47.91-24.75,25.6-43.94,54.95-58.76,87.25-8.67,18.89-15.47,38.45-20.86,58.51-.17.62-.32,1.23-.51,1.94h485.08ZM407.51,288.41c17,14.89,33.94,29.71,50.93,44.59-17,14.89-33.94,29.71-50.93,44.59-16.98-14.86-33.91-29.69-50.93-44.59,17-14.88,33.9-29.68,50.93-44.59ZM517.55,281.25c-16.82,14.72-33.5,29.32-50.18,43.93-17.03-14.91-33.95-29.72-50.93-44.59,16.79-14.7,33.47-29.3,50.18-43.93,17.01,14.9,33.91,29.69,50.93,44.59ZM297.47,281.25c17.06-14.93,33.98-29.75,50.93-44.59,16.77,14.69,33.43,29.27,50.18,43.93-17.02,14.9-33.96,29.73-50.93,44.59-16.76-14.67-33.41-29.26-50.18-43.93ZM338.72,333c-16.98,14.86-33.86,29.64-50.79,44.47-16.77-14.68-33.42-29.26-50.18-43.93,16.98-14.86,33.86-29.65,50.79-44.47,16.76,14.68,33.42,29.26,50.18,43.93ZM526.48,289.06c16.94,14.83,33.83,29.61,50.79,44.47-16.79,14.7-33.44,29.28-50.18,43.93-16.96-14.85-33.84-29.63-50.79-44.47,16.78-14.69,33.44-29.28,50.18-43.93ZM457.69,228.84c-16.78,14.7-33.46,29.29-50.18,43.93-16.75-14.66-33.42-29.26-50.18-43.93,16.81-14.71,33.48-29.31,50.18-43.93,16.76,14.67,33.41,29.25,50.17,43.93ZM258.18,246.85c.41-.37.74-.66,1.07-.96,5.51-4.87,10.89-9.89,16.56-14.57,11.45-9.46,23.83-17.56,36.95-24.54.62-.33,1.06-.42,1.69.13,8.13,7.16,16.29,14.28,24.44,21.41.17.15.3.35.5.58-16.98,14.87-33.91,29.69-50.85,44.52-10.12-8.86-20.16-17.65-30.36-26.58ZM526.48,273.43c-17.01-14.89-33.93-29.71-50.86-44.53.16-.2.22-.3.31-.38,7.87-6.9,15.77-13.77,23.6-20.72,1.04-.92,1.73-.9,2.87-.28,17.17,9.3,32.85,20.66,47.25,33.82,2.17,1.98,4.27,4.03,6.49,6.12-9.94,8.71-19.76,17.3-29.66,25.97ZM228.82,325.71c-6.28-5.5-12.44-10.89-18.65-16.33,11.27-19.53,24.37-37.6,39.81-54.08,9.92,8.69,19.72,17.27,29.62,25.94-16.98,14.87-33.84,29.63-50.79,44.47ZM535.41,281.25c9.72-8.51,19.29-16.89,28.93-25.33,15.37,16.53,28.45,34.64,39.65,54.21-5.95,5.21-11.84,10.37-17.8,15.58-16.93-14.82-33.8-29.59-50.79-44.47ZM467.37,340.79c15.04,13.16,29.96,26.22,45.05,39.42h-90.12c15.14-13.25,30.06-26.3,45.07-39.42ZM302.57,380.22c15.16-13.26,30.1-26.33,45.08-39.43,15.01,13.13,29.92,26.18,45.06,39.43h-90.15ZM541.72,380.23c14.97-13.1,29.7-25.98,44.48-38.91,14.77,12.93,29.51,25.82,44.46,38.91h-88.95ZM273.25,380.2h-88.87c14.94-13.06,29.67-25.96,44.44-38.87,14.8,12.95,29.52,25.83,44.43,38.87ZM348.4,221.02c-7.72-6.76-15.39-13.48-23.18-20.29,20.97-9.36,42.67-15.07,65.49-16.75-14.09,12.34-28.18,24.67-42.31,37.04ZM466.62,221.02c-14.1-12.35-28.11-24.62-42.12-36.88,22.65,1.82,44.14,7.6,64.87,16.97-7.65,6.69-15.15,13.26-22.74,19.91ZM185.46,363.67c5.16-15.05,11.47-29.56,18.92-43.72,5.22,4.57,10.33,9.05,15.51,13.59-11.57,10.13-23,20.13-34.43,30.14ZM595.13,333.53c4.91-4.3,9.73-8.52,14.64-12.82,6.98,13.36,12.97,27.05,17.85,41.27-10.8-9.46-21.6-18.91-32.5-28.45Z"/>
      <path class="st2" d="M407.51,288.41c-17.03,14.91-33.93,29.71-50.93,44.59,17.02,14.9,33.95,29.73,50.93,44.59,16.99-14.88,33.93-29.7,50.93-44.59-16.99-14.88-33.93-29.7-50.93-44.59Z"/>
      <path class="st2" d="M517.55,281.25c-17.02-14.9-33.91-29.69-50.93-44.59-16.71,14.63-33.39,29.23-50.18,43.93,16.98,14.86,33.89,29.68,50.93,44.59,16.68-14.6,33.36-29.2,50.18-43.93Z"/>
      <path class="st2" d="M297.47,281.25c16.76,14.67,33.42,29.26,50.18,43.93,16.97-14.86,33.91-29.69,50.93-44.59-16.74-14.66-33.4-29.24-50.18-43.93-16.95,14.84-33.87,29.65-50.93,44.59Z"/>
      <path class="st2" d="M338.72,333c-16.76-14.67-33.41-29.25-50.18-43.93-16.93,14.82-33.81,29.6-50.79,44.47,16.76,14.67,33.41,29.25,50.18,43.93,16.93-14.82,33.82-29.6,50.79-44.47Z"/>
      <path class="st2" d="M526.48,289.06c-16.73,14.65-33.39,29.24-50.18,43.93,16.95,14.84,33.83,29.62,50.79,44.47,16.74-14.65,33.39-29.23,50.18-43.93-16.96-14.85-33.85-29.64-50.79-44.47Z"/>
      <path class="st2" d="M457.69,228.84c-16.76-14.67-33.41-29.25-50.17-43.93-16.69,14.61-33.37,29.21-50.18,43.93,16.76,14.67,33.43,29.27,50.18,43.93,16.72-14.64,33.39-29.23,50.18-43.93Z"/>
      <path class="st2" d="M258.18,246.85c10.2,8.93,20.23,17.71,30.36,26.58,16.95-14.84,33.87-29.66,50.85-44.52-.2-.23-.33-.43-.5-.58-8.15-7.13-16.31-14.25-24.44-21.41-.63-.55-1.07-.46-1.69-.13-13.11,6.98-25.5,15.08-36.95,24.54-5.67,4.68-11.05,9.7-16.56,14.57-.33.29-.66.59-1.07.96Z"/>
      <path class="st2" d="M526.48,273.43c9.9-8.67,19.72-17.26,29.66-25.97-2.22-2.1-4.32-4.14-6.49-6.12-14.4-13.16-30.08-24.52-47.25-33.82-1.15-.62-1.83-.64-2.87.28-7.83,6.95-15.73,13.82-23.6,20.72-.09.08-.15.18-.31.38,16.93,14.83,33.86,29.64,50.86,44.53Z"/>
      <path class="st2" d="M228.82,325.71c16.95-14.84,33.81-29.6,50.79-44.47-9.9-8.67-19.7-17.25-29.62-25.94-15.44,16.47-28.54,34.54-39.81,54.08,6.21,5.43,12.37,10.83,18.65,16.33Z"/>
      <path class="st2" d="M535.41,281.25c16.99,14.88,33.86,29.65,50.79,44.47,5.95-5.21,11.85-10.37,17.8-15.58-11.2-19.57-24.28-37.68-39.65-54.21-9.64,8.44-19.21,16.82-28.93,25.33Z"/>
      <path class="st2" d="M467.37,340.79c-15.01,13.13-29.92,26.18-45.07,39.42h90.12c-15.09-13.21-30.02-26.27-45.05-39.42Z"/>
      <path class="st2" d="M302.57,380.22h90.15c-15.15-13.26-30.06-26.3-45.06-39.43-14.98,13.11-29.93,26.18-45.08,39.43Z"/>
      <path class="st2" d="M541.72,380.23h88.95c-14.96-13.09-29.69-25.98-44.46-38.91-14.78,12.93-29.51,25.81-44.48,38.91Z"/>
      <path class="st2" d="M273.25,380.2c-14.91-13.05-29.62-25.92-44.43-38.87-14.77,12.92-29.51,25.81-44.44,38.87h88.87Z"/>
      <path class="st2" d="M348.4,221.02c14.13-12.37,28.22-24.71,42.31-37.04-22.81,1.68-44.51,7.39-65.49,16.75,7.79,6.82,15.45,13.53,23.18,20.29Z"/>
      <path class="st2" d="M466.62,221.02c7.6-6.65,15.1-13.22,22.74-19.91-20.73-9.37-42.21-15.15-64.87-16.97,14.01,12.27,28.02,24.54,42.12,36.88Z"/>
      <path class="st2" d="M185.46,363.67c11.43-10,22.86-20.01,34.43-30.14-5.18-4.54-10.29-9.02-15.51-13.59-7.45,14.16-13.76,28.67-18.92,43.72Z"/>
      <path class="st2" d="M595.13,333.53c10.9,9.54,21.7,18.99,32.5,28.45-4.89-14.23-10.87-27.91-17.85-41.27-4.91,4.3-9.73,8.52-14.64,12.82Z"/>
    </g>
  </g>
  <g id="nz6Z7I.tif1" data-name="nz6Z7I.tif">
    <g>
      <path class="st1" d="M649.45,572.28c-1.43,4.98-2.76,9.86-4.22,14.71-9.71,32.18-23.46,62.49-42.01,90.57-12.34,18.68-26.52,35.85-42.84,51.2-25.01,23.53-53.39,41.58-85.99,52.72-11.45,3.91-23.17,6.73-35.12,8.69-14.02,2.3-28.14,2.92-42.28,2.27-31.56-1.44-61.27-9.88-89.21-24.57-23.74-12.47-44.68-28.66-63.29-47.91-24.75-25.6-43.94-54.95-58.76-87.25-8.67-18.89-15.47-38.45-20.86-58.51-.17-.62-.32-1.23-.51-1.94h485.08ZM407.51,675.69c17-14.89,33.94-29.71,50.93-44.59-17-14.89-33.94-29.71-50.93-44.59-16.98,14.86-33.91,29.69-50.93,44.59,17,14.88,33.9,29.68,50.93,44.59ZM517.55,682.85c-16.82-14.72-33.5-29.32-50.18-43.93-17.03,14.91-33.95,29.72-50.93,44.59,16.79,14.7,33.47,29.3,50.18,43.93,17.01-14.9,33.91-29.69,50.93-44.59ZM297.47,682.85c17.06,14.93,33.98,29.75,50.93,44.59,16.77-14.69,33.43-29.27,50.18-43.93-17.02-14.9-33.96-29.73-50.93-44.59-16.76,14.67-33.41,29.26-50.18,43.93ZM338.72,631.1c-16.98-14.86-33.86-29.64-50.79-44.47-16.77,14.68-33.42,29.26-50.18,43.93,16.98,14.86,33.86,29.65,50.79,44.47,16.76-14.68,33.42-29.26,50.18-43.93ZM526.48,675.03c16.94-14.83,33.83-29.61,50.79-44.47-16.79-14.7-33.44-29.28-50.18-43.93-16.96,14.85-33.84,29.63-50.79,44.47,16.78,14.69,33.44,29.28,50.18,43.93ZM457.69,735.26c-16.78-14.7-33.46-29.29-50.18-43.93-16.75,14.66-33.42,29.26-50.18,43.93,16.81,14.71,33.48,29.31,50.18,43.93,16.76-14.67,33.41-29.25,50.17-43.93ZM258.18,717.25c.41.37.74.66,1.07.96,5.51,4.87,10.89,9.89,16.56,14.57,11.45,9.46,23.83,17.56,36.95,24.54.62.33,1.06.42,1.69-.13,8.13-7.16,16.29-14.28,24.44-21.41.17-.15.3-.35.5-.58-16.98-14.87-33.91-29.69-50.85-44.52-10.12,8.86-20.16,17.65-30.36,26.58ZM526.48,690.67c-17.01,14.89-33.93,29.71-50.86,44.53.16.2.22.3.31.38,7.87,6.9,15.77,13.77,23.6,20.72,1.04.92,1.73.9,2.87.28,17.17-9.3,32.85-20.66,47.25-33.82,2.17-1.98,4.27-4.03,6.49-6.12-9.94-8.71-19.76-17.3-29.66-25.97ZM228.82,638.38c-6.28,5.5-12.44,10.89-18.65,16.33,11.27,19.53,24.37,37.6,39.81,54.08,9.92-8.69,19.72-17.27,29.62-25.94-16.98-14.87-33.84-29.63-50.79-44.47ZM535.41,682.85c9.72,8.51,19.29,16.89,28.93,25.33,15.37-16.53,28.45-34.64,39.65-54.21-5.95-5.21-11.84-10.37-17.8-15.58-16.93,14.82-33.8,29.59-50.79,44.47ZM467.37,623.31c15.04-13.16,29.96-26.22,45.05-39.42h-90.12c15.14,13.25,30.06,26.3,45.07,39.42ZM302.57,583.87c15.16,13.26,30.1,26.33,45.08,39.43,15.01-13.13,29.92-26.18,45.06-39.43h-90.15ZM541.72,583.86c14.97,13.1,29.7,25.98,44.48,38.91,14.77-12.93,29.51-25.82,44.46-38.91h-88.95ZM273.25,583.9h-88.87c14.94,13.06,29.67,25.96,44.44,38.87,14.8-12.95,29.52-25.83,44.43-38.87ZM348.4,743.07c-7.72,6.76-15.39,13.48-23.18,20.29,20.97,9.36,42.67,15.07,65.49,16.75-14.09-12.34-28.18-24.67-42.31-37.04ZM466.62,743.07c-14.1,12.35-28.11,24.62-42.12,36.88,22.65-1.82,44.14-7.6,64.87-16.97-7.65-6.69-15.15-13.26-22.74-19.91ZM185.46,600.42c5.16,15.05,11.47,29.56,18.92,43.72,5.22-4.57,10.33-9.05,15.51-13.59-11.57-10.13-23-20.13-34.43-30.14ZM595.13,630.56c4.91,4.3,9.73,8.52,14.64,12.82,6.98-13.36,12.97-27.05,17.85-41.27-10.8,9.46-21.6,18.91-32.5,28.45Z"/>
      <path class="st2" d="M407.51,675.69c-17.03-14.91-33.93-29.71-50.93-44.59,17.02-14.9,33.95-29.73,50.93-44.59,16.99,14.88,33.93,29.7,50.93,44.59-16.99,14.88-33.93,29.7-50.93,44.59Z"/>
      <path class="st2" d="M517.55,682.85c-17.02,14.9-33.91,29.69-50.93,44.59-16.71-14.63-33.39-29.23-50.18-43.93,16.98-14.86,33.89-29.68,50.93-44.59,16.68,14.6,33.36,29.2,50.18,43.93Z"/>
      <path class="st2" d="M297.47,682.85c16.76-14.67,33.42-29.26,50.18-43.93,16.97,14.86,33.91,29.69,50.93,44.59-16.74,14.66-33.4,29.24-50.18,43.93-16.95-14.84-33.87-29.65-50.93-44.59Z"/>
      <path class="st2" d="M338.72,631.1c-16.76,14.67-33.41,29.25-50.18,43.93-16.93-14.82-33.81-29.6-50.79-44.47,16.76-14.67,33.41-29.25,50.18-43.93,16.93,14.82,33.82,29.6,50.79,44.47Z"/>
      <path class="st2" d="M526.48,675.03c-16.73-14.65-33.39-29.24-50.18-43.93,16.95-14.84,33.83-29.62,50.79-44.47,16.74,14.65,33.39,29.23,50.18,43.93-16.96,14.85-33.85,29.64-50.79,44.47Z"/>
      <path class="st2" d="M457.69,735.26c-16.76,14.67-33.41,29.25-50.17,43.93-16.69-14.61-33.37-29.21-50.18-43.93,16.76-14.67,33.43-29.27,50.18-43.93,16.72,14.64,33.39,29.23,50.18,43.93Z"/>
      <path class="st2" d="M258.18,717.25c10.2-8.93,20.23-17.71,30.36-26.58,16.95,14.84,33.87,29.66,50.85,44.52-.2.23-.33.43-.5.58-8.15,7.13-16.31,14.25-24.44,21.41-.63.55-1.07.46-1.69.13-13.11-6.98-25.5-15.08-36.95-24.54-5.67-4.68-11.05-9.7-16.56-14.57-.33-.29-.66-.59-1.07-.96Z"/>
      <path class="st2" d="M526.48,690.67c9.9,8.67,19.72,17.26,29.66,25.97-2.22,2.1-4.32,4.14-6.49,6.12-14.4,13.16-30.08,24.52-47.25,33.82-1.15.62-1.83.64-2.87-.28-7.83-6.95-15.73-13.82-23.6-20.72-.09-.08-.15-.18-.31-.38,16.93-14.83,33.86-29.64,50.86-44.53Z"/>
      <path class="st2" d="M228.82,638.38c16.95,14.84,33.81,29.6,50.79,44.47-9.9,8.67-19.7,17.25-29.62,25.94-15.44-16.47-28.54-34.54-39.81-54.08,6.21-5.43,12.37-10.83,18.65-16.33Z"/>
      <path class="st2" d="M535.41,682.85c16.99-14.88,33.86-29.65,50.79-44.47,5.95,5.21,11.85,10.37,17.8,15.58-11.2,19.57-24.28,37.68-39.65,54.21-9.64-8.44-19.21-16.82-28.93-25.33Z"/>
      <path class="st2" d="M467.37,623.31c-15.01-13.13-29.92-26.18-45.07-39.42h90.12c-15.09,13.21-30.02,26.27-45.05,39.42Z"/>
      <path class="st2" d="M302.57,583.87h90.15c-15.15,13.26-30.06,26.3-45.06,39.43-14.98-13.11-29.93-26.18-45.08-39.43Z"/>
      <path class="st2" d="M541.72,583.86h88.95c-14.96,13.09-29.69,25.98-44.46,38.91-14.78-12.93-29.51-25.81-44.48-38.91Z"/>
      <path class="st2" d="M273.25,583.9c-14.91,13.05-29.62,25.92-44.43,38.87-14.77-12.92-29.51-25.81-44.44-38.87h88.87Z"/>
      <path class="st2" d="M348.4,743.07c14.13,12.37,28.22,24.71,42.31,37.04-22.81-1.68-44.51-7.39-65.49-16.75,7.79-6.82,15.45-13.53,23.18-20.29Z"/>
      <path class="st2" d="M466.62,743.07c7.6,6.65,15.1,13.22,22.74,19.91-20.73,9.37-42.21,15.15-64.87,16.97,14.01-12.27,28.02-24.54,42.12-36.88Z"/>
      <path class="st2" d="M185.46,600.42c11.43,10,22.86,20.01,34.43,30.14-5.18,4.54-10.29,9.02-15.51,13.59-7.45-14.16-13.76-28.67-18.92-43.72Z"/>
      <path class="st2" d="M595.13,630.56c10.9-9.54,21.7-18.99,32.5-28.45-4.89,14.23-10.87,27.91-17.85,41.27-4.91-4.3-9.73-8.52-14.64-12.82Z"/>
    </g>
  </g>
  <g id="surface1">
    <path class="st4" d="M406.22,5.78c-1.61.16-3.14.72-4.51,1.61l-247.21,162.87c-2.86,1.97-4.55,5.23-4.51,8.69v66.95c.04,3.78,2.17,7.24,5.55,8.97,3.34,1.77,7.4,1.53,10.54-.6l241.41-159.98,241.41,159.98c3.14,2.13,7.2,2.37,10.54.6,3.38-1.73,5.51-5.19,5.55-8.97v-66.95c.04-3.46-1.65-6.72-4.51-8.69L413.3,7.39c-2.09-1.37-4.59-1.93-7.08-1.61ZM562.01,91.4,407.51,28.63l236.91,155.79v42.17l-231.11-153.22c-3.5-2.37-8.09-2.37-11.59,0l-231.11,153.22v-42.17L407.51,28.63Z"/>
  </g>
  <g>
    <path class="st0" d="M118.58,494.4c-.56,1.11-2.05,2.26-4.48,3.44-2.43,1.18-5.25,1.77-8.45,1.77-1.53,0-3.44-.21-5.73-.63s-4-1.25-5.11-2.5c-4.03,4.87-9,8.31-14.91,10.32-5.91,2.01-11.78,3.02-17.62,3.02s-11.3-.87-16.37-2.61c-5.08-1.74-9.42-4.17-13.03-7.3-3.62-3.13-6.46-6.85-8.55-11.16-2.08-4.31-3.13-8.97-3.13-13.97,0-2.64.45-5.49,1.36-8.55.9-3.06,2.15-5.84,3.75-8.34,1.6-2.5,3.51-4.59,5.73-6.26,2.22-1.67,4.73-2.5,7.51-2.5,2.92,0,5.74.73,8.45,2.19s5.11,2.96,7.19,4.48c9.18-10.56,16.09-19.92,20.75-28.05,4.66-8.13,7.19-14.7,7.61-19.71.42.14,1.22.56,2.4,1.25,1.18.7,2.4,1.56,3.65,2.61,1.25,1.04,2.36,2.26,3.34,3.65.97,1.39,1.46,2.78,1.46,4.17,0,.97-.35,2.05-1.04,3.23-.7,1.18-1.04,2.54-1.04,4.07,0,2.64.55,5.73,1.67,9.28,1.11,3.55,2.33,7.33,3.65,11.37,1.32,4.03,2.53,8.27,3.65,12.72,1.11,4.45,1.67,8.9,1.67,13.35,0,3.62-.45,7.09-1.36,10.43-.91,3.34-2.47,6.61-4.69,9.8,1.67.83,3.26,1.53,4.8,2.08,1.53.56,3.13.83,4.8.83,3.2,0,5.46-.24,6.78-.73,1.32-.49,2.26-1.04,2.82-1.67.55-.63.94-1.22,1.15-1.77.21-.55.73-.83,1.56-.83.55,0,.83.28.83.83,0,.42-.21.83-.63,1.25-.14.28-.28.42-.42.42ZM37.88,455.82c-2.78,1.53-4.97,4.07-6.57,7.61-1.6,3.55-2.4,7.33-2.4,11.37,0,1.11.07,1.95.21,2.5,2.08-1.39,5.14-3.54,9.18-6.46,4.03-2.92,8.27-6.53,12.72-10.84-1.95-1.39-3.89-2.5-5.84-3.34-1.95-.83-3.69-1.25-5.21-1.25-.56,0-1.25.14-2.08.42ZM59.98,499.82c4.45,0,9.04-.66,13.76-1.98,4.72-1.32,8.69-3.79,11.89-7.4-4.87-3.61-9.49-7.72-13.87-12.3-4.38-4.59-9.7-9.45-15.95-14.6-5.84,4.73-11.19,8.38-16.06,10.95-4.87,2.57-8.27,4.28-10.22,5.11.83,3.48,2.22,6.46,4.17,8.97,1.95,2.5,4.27,4.59,6.99,6.26,2.71,1.67,5.7,2.92,8.97,3.75,3.26.83,6.71,1.25,10.32,1.25ZM87.93,487.52c1.95-3.47,2.92-7.23,2.92-11.26,0-3.75-.42-7.33-1.25-10.74-.83-3.41-1.84-6.71-3.02-9.91-1.18-3.2-2.37-6.22-3.55-9.07-1.18-2.85-2.05-5.53-2.61-8.03-3.2,3.89-6.5,7.65-9.91,11.26-3.41,3.62-6.92,7.02-10.53,10.22,5.56,5.14,10.53,10.15,14.91,15.01,4.38,4.87,8.72,9.04,13.03,12.51Z"/>
    <path class="st0" d="M154.04,458.53c.14.7.21,1.36.21,1.98v1.98c0,5.01-1.08,9.77-3.23,14.29-2.16,4.52-4.35,8.17-6.57,10.95.55.28,1.39.42,2.5.42,1.25,0,2.43-.24,3.54-.73,1.11-.49,2.15-1.04,3.13-1.67.97-.63,1.81-1.18,2.5-1.67.69-.49,1.25-.73,1.67-.73s.63.35.63,1.04c0,.56-.24,1.36-.73,2.4-.49,1.04-1.25,2.09-2.29,3.13-1.04,1.04-2.5,1.95-4.38,2.71-1.88.77-4.14,1.15-6.78,1.15-1.67,0-3.41-.34-5.21-1.04-.7.97-2.33,2.4-4.9,4.27-2.57,1.88-5.6,2.82-9.07,2.82-2.92,0-5.39-.63-7.4-1.88-2.02-1.25-3.65-2.85-4.9-4.8-1.25-1.95-2.19-4.03-2.82-6.26-.63-2.22-.94-4.38-.94-6.46,0-5.42.91-10.25,2.71-14.49,1.8-4.24,3.86-7.89,6.15-10.95,2.29-3.06,4.55-5.46,6.78-7.2,2.22-1.74,3.75-2.74,4.59-3.02.28,0,.66.18,1.15.52.49.35,1.28,1.43,2.4,3.23,1.11-.83,2.36-1.6,3.75-2.29,1.39-.69,3.2-1.04,5.42-1.04s4.1.52,5.63,1.56c1.53,1.04,2.74,2.26,3.65,3.65.9,1.39,1.6,2.85,2.08,4.38.49,1.53.73,2.78.73,3.75ZM125.67,494.61c.69,0,1.74-.28,3.13-.83,1.39-.55,3.06-1.74,5-3.54-3.62-2.22-6.02-5.28-7.2-9.18-1.18-3.89-1.77-7.72-1.77-11.47,0-.83.03-1.7.1-2.61.07-.9.17-1.77.31-2.61-2.37,2.5-4.35,5.35-5.94,8.55-1.6,3.2-2.4,6.67-2.4,10.43s.76,6.5,2.29,8.24c1.53,1.74,3.68,2.75,6.46,3.02ZM143.4,473.13c.28-.83.49-1.74.62-2.71.14-.97.21-1.95.21-2.92,0-2.09-.07-4.03-.21-5.84-.14-1.8-.62-2.85-1.46-3.13-1.12,0-2.16.56-3.13,1.67-.97,1.12-1.84,2.47-2.61,4.07-.77,1.6-1.39,3.34-1.88,5.21-.49,1.88-.73,3.65-.73,5.32,0,1.53.28,3.48.83,5.84.55,2.37,1.67,3.83,3.34,4.38,1.11-1.53,2.08-3.26,2.92-5.21.83-1.95,1.53-4.17,2.09-6.67Z"/>
    <path class="st0" d="M204.71,474.59c.42.14.62.42.62.83-.7,3.06-2.22,6.12-4.59,9.18-2.37,3.06-5.14,5.81-8.34,8.24-3.2,2.43-6.57,4.42-10.11,5.94-3.55,1.53-6.85,2.29-9.91,2.29s-5.94-.66-8.24-1.98c-2.29-1.32-4.21-2.99-5.73-5-1.53-2.01-2.68-4.28-3.44-6.78-.76-2.5-1.15-4.93-1.15-7.3,0-8.62,1.98-16.4,5.94-23.36,3.96-6.95,10.25-11.89,18.87-14.81,1.25-.42,2.5-.62,3.75-.62,3.06,0,5.49.8,7.3,2.4,1.8,1.6,3.2,3.41,4.17,5.42.97,2.02,1.6,3.96,1.88,5.84.28,1.88.42,3.02.42,3.44,0,1.53-.18,3.23-.52,5.11-.35,1.88-.87,3.65-1.56,5.32-.7,1.67-1.67,3.06-2.92,4.17-1.25,1.11-2.71,1.67-4.38,1.67-1.11,0-2.23-.14-3.34-.42-1.11-.28-2.16-.55-3.13-.83-1.11-.42-2.23-.83-3.34-1.25,1.53-1.95,2.71-3.82,3.55-5.63.83-1.81,1.39-3.41,1.67-4.8.42-1.53.63-2.92.63-4.17,0-2.22-.83-3.34-2.5-3.34-1.53,0-3.3.77-5.32,2.29-2.02,1.53-4,3.51-5.94,5.94-1.95,2.43-3.58,5.21-4.9,8.34-1.32,3.13-1.98,6.29-1.98,9.49,0,4.31,1.25,7.86,3.75,10.64,2.5,2.78,5.63,4.17,9.38,4.17,1.95,0,3.82-.35,5.63-1.04,1.8-.69,3.54-1.49,5.21-2.4,1.67-.9,3.2-1.88,4.59-2.92,1.39-1.04,2.57-1.98,3.55-2.81,2.64-2.09,4.52-3.82,5.63-5.21,1.11-1.39,1.88-2.54,2.29-3.44.42-.9.73-1.56.94-1.98.21-.42.73-.63,1.56-.63Z"/>
    <path class="st0" d="M209.29,499.82c-4.03,0-6.99-1.56-8.86-4.69s-2.82-6.64-2.82-10.53c0-4.17.63-8.41,1.88-12.72,1.25-4.31,2.64-8.34,4.17-12.1,1.53-3.75,2.95-7.09,4.28-10.01,1.32-2.92,2.12-5.07,2.4-6.46-.14.28.31.63,1.36,1.04,1.04.42,2.19,1.04,3.44,1.88,1.25.83,2.43,1.91,3.55,3.23,1.11,1.32,1.67,3.02,1.67,5.11,0,1.67-.77,3.48-2.29,5.42-2.37,4.45-4.76,9.18-7.19,14.18-2.43,5-3.65,9.73-3.65,14.18,0,1.53.21,2.78.62,3.75.42.97,1.39,1.46,2.92,1.46,2.36,0,5.28-1.42,8.76-4.28,3.47-2.85,6.6-7.47,9.38-13.87l.42-.21c.55,0,1.04.21,1.46.62l.42.42c0-.14-.31,1.01-.94,3.44-.62,2.43-1.77,5.15-3.44,8.13-1.67,2.99-3.93,5.74-6.78,8.24-2.85,2.5-6.43,3.75-10.74,3.75ZM228.27,437.05c-.7,1.53-1.74,2.78-3.13,3.75-1.39.97-2.85,1.46-4.38,1.46-1.95,0-3.34-.69-4.17-2.08-.83-1.39-1.25-2.99-1.25-4.8,0-2.22.66-4.03,1.98-5.42,1.32-1.39,2.95-2.08,4.9-2.08s3.54.62,4.8,1.88c1.25,1.25,1.88,2.78,1.88,4.59,0,.97-.21,1.88-.62,2.71Z"/>
    <path class="st0" d="M284.16,475.21c.69.42,1.04.7,1.04.83,0,.56-.45,2.29-1.36,5.21-.91,2.92-2.19,6.05-3.86,9.38-1.67,3.34-3.72,6.36-6.15,9.07-2.43,2.71-5.18,4.07-8.24,4.07-2.08,0-4.21-.87-6.36-2.61-2.16-1.74-3.72-4.76-4.69-9.07-.56.7-1.22,1.5-1.98,2.4-.77.91-1.74,1.74-2.92,2.5-1.18.77-2.57,1.43-4.17,1.98-1.6.55-3.58.83-5.94.83-3.2,0-5.81-.76-7.82-2.29-2.02-1.53-3.58-3.41-4.69-5.63-1.11-2.22-1.88-4.48-2.29-6.78s-.62-4.28-.62-5.94c0-3.89.77-7.96,2.29-12.2,1.53-4.24,3.65-8.1,6.36-11.57,2.71-3.47,5.91-6.33,9.59-8.55,3.68-2.22,7.75-3.34,12.2-3.34,3.06,0,5.46.45,7.2,1.36,1.74.91,3.37,1.84,4.9,2.82.28-.42.45-.87.52-1.36.07-.49.17-.87.31-1.15.14,0,.76.31,1.88.94,1.11.63,2.29,1.46,3.54,2.5,1.25,1.04,2.36,2.16,3.34,3.34.97,1.18,1.46,2.4,1.46,3.65,0,1.12-.21,2.19-.63,3.23-.42,1.04-.91,2.12-1.46,3.23h-.21c-1.11,2.09-2.33,4.35-3.65,6.78-1.32,2.43-2.54,4.9-3.65,7.4-1.11,2.5-2.05,5.08-2.82,7.72-.77,2.64-1.15,5.21-1.15,7.72,0,4.59.97,6.88,2.92,6.88s4.45-1.91,7.51-5.74c3.06-3.82,5.84-9.62,8.34-17.41,0-.14.14-.21.42-.21h.83ZM254.13,488.14c0-4.73.76-9.59,2.29-14.6,1.53-5,3.06-9.31,4.59-12.93-1.25-1.39-2.57-2.53-3.96-3.44-1.39-.9-2.92-1.36-4.59-1.36-2.37,0-4.76.77-7.2,2.29-2.43,1.53-4.69,3.51-6.78,5.94-2.08,2.43-3.79,5.18-5.11,8.24-1.32,3.06-1.98,6.12-1.98,9.18,0,1.53.1,3.06.31,4.59.21,1.53.69,2.99,1.46,4.38.76,1.39,1.8,2.5,3.13,3.34,1.32.83,3.16,1.25,5.53,1.25s4.59-.63,6.67-1.88c2.09-1.25,3.96-2.92,5.63-5Z"/>
    <path class="st0" d="M305.43,401.6c.28,0,1.04.28,2.29.83,1.25.56,2.61,1.29,4.07,2.19,1.46.91,2.74,1.98,3.86,3.23,1.11,1.25,1.67,2.57,1.67,3.96,0,1.25-.24,2.54-.73,3.86-.49,1.32-1.01,2.54-1.56,3.65-.97,2.09-2.4,5.18-4.28,9.28-1.88,4.1-3.93,8.69-6.15,13.76-2.23,5.08-4.52,10.39-6.88,15.95-2.37,5.56-4.48,10.88-6.36,15.95-1.88,5.08-3.41,9.73-4.59,13.97-1.18,4.24-1.77,7.54-1.77,9.91,0,.28.03.62.1,1.04.07.42.24.63.52.63.69,0,2.47-1.25,5.32-3.75,2.85-2.5,6.5-7.37,10.95-14.6,1.11-1.11,1.88-1.67,2.29-1.67.28.14.42.49.42,1.04,0,1.25-.83,3.41-2.5,6.46-1.67,3.06-3.65,6.15-5.94,9.28s-4.66,5.87-7.09,8.24c-2.43,2.36-4.42,3.54-5.94,3.54-.56,0-1.21-.04-1.98-.1-.76-.07-1.53-.38-2.29-.94-.76-.56-1.42-1.43-1.98-2.61-.55-1.18-.83-2.81-.83-4.9,0-2.92.45-6.6,1.36-11.05.91-4.45,2.08-9.28,3.54-14.49,1.46-5.21,3.13-10.67,5-16.37,1.88-5.7,3.79-11.26,5.74-16.68,1.95-5.42,3.82-10.56,5.63-15.43,1.8-4.86,3.47-9.1,5-12.72.42-1.53.9-3.06,1.46-4.59.42-1.25.8-2.5,1.15-3.75.35-1.25.52-2.29.52-3.13Z"/>
    <path class="st0" d="M474.55,410.57c.28.14,1.04.45,2.29.94,1.25.49,2.57,1.15,3.96,1.98,1.39.83,2.64,1.91,3.75,3.23,1.11,1.32,1.67,2.82,1.67,4.48,0,1.53-.35,3.06-1.04,4.59-1.11,2.09-2.64,5.29-4.59,9.59-1.95,4.31-4.03,9.21-6.26,14.7-2.23,5.49-4.48,11.23-6.78,17.21-2.29,5.98-4.35,11.71-6.15,17.2-1.81,5.49-3.3,10.43-4.48,14.81-1.18,4.38-1.77,7.68-1.77,9.91-.14,0-.66-.1-1.56-.31-.91-.21-1.88-.62-2.92-1.25s-1.98-1.5-2.82-2.61c-.83-1.11-1.25-2.57-1.25-4.38,0-2.5.69-6.6,2.09-12.3,1.39-5.7,3.4-12.51,6.05-20.44-7.79,7.51-13.66,14.39-17.62,20.65-3.96,6.26-6.43,10.78-7.4,13.55,0,.28-.04.69-.1,1.25-.07.55-.38.83-.94.83-.42,0-1.25-1.08-2.5-3.23-1.25-2.15-2.68-5.01-4.28-8.55-1.6-3.54-3.16-7.61-4.69-12.2-1.53-4.59-2.85-9.31-3.96-14.18-.14-.28-.21-.63-.21-1.04-2.08,5.56-4.52,11.12-7.3,16.68-2.78,5.56-6.12,10.6-10.01,15.12-3.89,4.52-8.55,8.2-13.97,11.05-5.42,2.85-11.75,4.27-18.98,4.27-10.43,0-18.77-3.06-25.02-9.18s-9.38-15.43-9.38-27.94c0-7.23,1.22-14,3.65-20.33,2.43-6.32,5.63-11.81,9.59-16.47,3.96-4.66,8.41-8.34,13.35-11.05,4.93-2.71,9.97-4.2,15.12-4.48,5.56,0,9.83.87,12.83,2.61,2.99,1.74,5.73,3.86,8.24,6.36-1.11,1.39-2.09,2.43-2.92,3.13-.83.7-1.81,1.36-2.92,1.98-1.11.62-2.23.94-3.34.94-.83,0-1.6-.14-2.29-.42-.97-.69-2.23-1.6-3.75-2.71-1.53-1.11-3.89-1.67-7.09-1.67-4.03,0-8.38,1.15-13.03,3.44-4.66,2.29-8.59,5.39-11.78,9.28-4.17,4.45-6.92,8.86-8.24,13.24-1.32,4.38-1.98,9.21-1.98,14.49,0,4.03.45,7.92,1.36,11.68.9,3.75,2.4,7.09,4.48,10.01,2.08,2.92,4.8,5.25,8.13,6.99,3.34,1.74,7.44,2.61,12.3,2.61,6.26,0,11.68-1.15,16.27-3.44s8.51-5.21,11.78-8.76c3.27-3.54,5.94-7.54,8.03-11.99,2.08-4.45,3.82-8.83,5.21-13.14,2.64-8.34,5.63-16.68,8.97-25.03,3.34-8.34,5.56-17.1,6.67-26.28.14.14.9.49,2.29,1.04,1.39.56,2.85,1.32,4.38,2.29,1.53.97,2.82,2.19,3.86,3.65,1.04,1.46,1.36,3.09.94,4.9-.28.97-.45,1.64-.52,1.98-.07.35-.14.66-.21.94-.07.28-.18.59-.31.94-.14.35-.42.94-.83,1.77-1.81,3.89-3.06,8.31-3.75,13.24-.7,4.94-1.04,9.98-1.04,15.12,0,3.62.28,7.23.83,10.84.55,3.62,1.22,6.99,1.98,10.11.76,3.13,1.49,5.94,2.19,8.45.69,2.5,1.25,4.59,1.67,6.26,1.8-5.28,4.52-10.88,8.13-16.79,3.61-5.91,8.34-13.03,14.18-21.38,5-7.78,9.07-14.6,12.2-20.44,3.13-5.84,5.53-10.74,7.2-14.7,1.67-3.96,2.82-7.05,3.44-9.28.63-2.22.94-3.68.94-4.38Z"/>
    <path class="st0" d="M531.07,475.21c.69.42,1.04.7,1.04.83,0,.56-.45,2.29-1.36,5.21-.91,2.92-2.19,6.05-3.86,9.38-1.67,3.34-3.72,6.36-6.15,9.07-2.43,2.71-5.18,4.07-8.24,4.07-2.09,0-4.21-.87-6.36-2.61-2.16-1.74-3.72-4.76-4.69-9.07-.56.7-1.22,1.5-1.98,2.4-.77.91-1.74,1.74-2.92,2.5-1.18.77-2.57,1.43-4.17,1.98-1.6.55-3.58.83-5.94.83-3.2,0-5.81-.76-7.82-2.29-2.02-1.53-3.58-3.41-4.69-5.63-1.11-2.22-1.88-4.48-2.29-6.78s-.63-4.28-.63-5.94c0-3.89.77-7.96,2.29-12.2,1.53-4.24,3.65-8.1,6.36-11.57,2.71-3.47,5.91-6.33,9.59-8.55,3.68-2.22,7.75-3.34,12.2-3.34,3.06,0,5.46.45,7.19,1.36,1.74.91,3.37,1.84,4.9,2.82.28-.42.45-.87.52-1.36.07-.49.17-.87.31-1.15.14,0,.76.31,1.88.94,1.11.63,2.29,1.46,3.54,2.5,1.25,1.04,2.36,2.16,3.34,3.34.97,1.18,1.46,2.4,1.46,3.65,0,1.12-.21,2.19-.63,3.23-.42,1.04-.91,2.12-1.46,3.23h-.21c-1.12,2.09-2.33,4.35-3.65,6.78-1.32,2.43-2.54,4.9-3.65,7.4-1.12,2.5-2.05,5.08-2.82,7.72-.77,2.64-1.15,5.21-1.15,7.72,0,4.59.97,6.88,2.92,6.88s4.45-1.91,7.51-5.74c3.06-3.82,5.84-9.62,8.34-17.41,0-.14.14-.21.42-.21h.83ZM501.04,488.14c0-4.73.76-9.59,2.29-14.6,1.53-5,3.06-9.31,4.59-12.93-1.25-1.39-2.57-2.53-3.96-3.44-1.39-.9-2.92-1.36-4.59-1.36-2.37,0-4.76.77-7.2,2.29-2.43,1.53-4.69,3.51-6.78,5.94-2.08,2.43-3.79,5.18-5.11,8.24-1.32,3.06-1.98,6.12-1.98,9.18,0,1.53.1,3.06.31,4.59.21,1.53.69,2.99,1.46,4.38.76,1.39,1.8,2.5,3.13,3.34,1.32.83,3.16,1.25,5.53,1.25s4.59-.63,6.67-1.88c2.09-1.25,3.96-2.92,5.63-5Z"/>
    <path class="st0" d="M556.09,492.31c-1.95-2.78-2.92-6.46-2.92-11.05,0-3.75.42-7.12,1.25-10.11.83-2.99,1.95-6.36,3.34-10.11-1.25,2.37-2.82,5.25-4.69,8.65-1.88,3.41-3.72,6.88-5.53,10.43-1.81,3.54-3.44,6.88-4.9,10.01s-2.4,5.46-2.82,6.99c-.7,1.81-1.39,3.2-2.08,4.17-.7.97-1.5,1.88-2.4,2.71-.91.83-1.91,1.25-3.02,1.25-3.34,0-5.56-1.29-6.67-3.86-1.11-2.57-1.67-5.94-1.67-10.11,0-4.59.56-9.1,1.67-13.56,1.11-4.45,2.37-8.48,3.75-12.09,1.39-3.61,2.71-6.64,3.96-9.07,1.25-2.43,2.01-3.93,2.29-4.48.83-1.67,1.67-3.65,2.5-5.94s1.39-3.93,1.67-4.9c.42,0,1.18.35,2.29,1.04,1.11.7,2.19,1.56,3.23,2.61,1.04,1.04,1.98,2.19,2.82,3.44.83,1.25,1.25,2.43,1.25,3.55,0,2.37-.83,5-2.5,7.92-1.67,2.92-3.51,6.08-5.53,9.49-2.02,3.41-3.86,6.99-5.53,10.74s-2.5,7.72-2.5,11.89c0,1.11.07,1.95.21,2.5,4.59-8.76,8.58-16.02,11.99-21.79,3.41-5.77,6.36-10.43,8.86-13.97,2.5-3.54,4.59-6.33,6.26-8.34,1.67-2.01,3.02-3.68,4.07-5,1.04-1.32,1.84-2.5,2.4-3.54.55-1.04,1.04-2.54,1.46-4.48.14,0,.73.31,1.77.94,1.04.63,2.12,1.46,3.23,2.5,1.11,1.04,2.15,2.16,3.13,3.34.97,1.18,1.46,2.4,1.46,3.65,0,.42-.1,1.18-.31,2.29-.21,1.11-.59,1.95-1.15,2.5-1.11,2.37-2.47,4.83-4.07,7.4-1.6,2.57-3.13,5.25-4.59,8.03-1.46,2.78-2.71,5.6-3.75,8.45-1.04,2.85-1.56,5.67-1.56,8.45,0,1.53.17,2.82.52,3.86.35,1.04,1.15,1.56,2.4,1.56,1.81,0,4.2-1.42,7.19-4.28,2.99-2.85,5.87-7.47,8.66-13.87l.42-.21c.42,0,.83.21,1.25.63l.42.42c0,.28-.45,1.64-1.36,4.07-.91,2.43-2.19,5.11-3.86,8.03-1.67,2.92-3.72,5.56-6.15,7.92-2.43,2.37-5.18,3.54-8.24,3.54-1.25,0-2.57-.28-3.96-.83-1.39-.55-2.71-1.67-3.96-3.34Z"/>
    <path class="st0" d="M637,475.21c.69.42,1.04.7,1.04.83,0,.56-.45,2.29-1.36,5.21-.91,2.92-2.19,6.05-3.86,9.38-1.67,3.34-3.72,6.36-6.15,9.07-2.43,2.71-5.18,4.07-8.24,4.07-2.09,0-4.21-.87-6.36-2.61-2.16-1.74-3.72-4.76-4.69-9.07-.56.7-1.22,1.5-1.98,2.4-.77.91-1.74,1.74-2.92,2.5-1.18.77-2.57,1.43-4.17,1.98-1.6.55-3.58.83-5.94.83-3.2,0-5.81-.76-7.82-2.29-2.02-1.53-3.58-3.41-4.69-5.63-1.11-2.22-1.88-4.48-2.29-6.78s-.63-4.28-.63-5.94c0-3.89.77-7.96,2.29-12.2,1.53-4.24,3.65-8.1,6.36-11.57,2.71-3.47,5.91-6.33,9.59-8.55,3.68-2.22,7.75-3.34,12.2-3.34,3.06,0,5.46.45,7.19,1.36,1.74.91,3.37,1.84,4.9,2.82.28-.42.45-.87.52-1.36.07-.49.17-.87.31-1.15.14,0,.76.31,1.88.94,1.11.63,2.29,1.46,3.54,2.5,1.25,1.04,2.36,2.16,3.34,3.34.97,1.18,1.46,2.4,1.46,3.65,0,1.12-.21,2.19-.63,3.23-.42,1.04-.91,2.12-1.46,3.23h-.21c-1.12,2.09-2.33,4.35-3.65,6.78-1.32,2.43-2.54,4.9-3.65,7.4-1.12,2.5-2.05,5.08-2.82,7.72-.77,2.64-1.15,5.21-1.15,7.72,0,4.59.97,6.88,2.92,6.88s4.45-1.91,7.51-5.74c3.06-3.82,5.84-9.62,8.34-17.41,0-.14.14-.21.42-.21h.83ZM606.97,488.14c0-4.73.76-9.59,2.29-14.6,1.53-5,3.06-9.31,4.59-12.93-1.25-1.39-2.57-2.53-3.96-3.44-1.39-.9-2.92-1.36-4.59-1.36-2.37,0-4.76.77-7.2,2.29-2.43,1.53-4.69,3.51-6.78,5.94-2.08,2.43-3.79,5.18-5.11,8.24-1.32,3.06-1.98,6.12-1.98,9.18,0,1.53.1,3.06.31,4.59.21,1.53.69,2.99,1.46,4.38.76,1.39,1.8,2.5,3.13,3.34,1.32.83,3.16,1.25,5.53,1.25s4.59-.63,6.67-1.88c2.09-1.25,3.96-2.92,5.63-5Z"/>
    <path class="st0" d="M686.63,447.48c.14.28.21.77.21,1.46,0,1.11-.28,2.29-.83,3.54-3.34,7.09-6.95,14.88-10.84,23.36-3.89,8.48-7.3,17.03-10.22,25.65,2.64.14,5.35.35,8.13.63,2.78.28,5.28.8,7.51,1.56,2.22.76,4.03,1.88,5.42,3.34,1.39,1.46,2.08,3.37,2.08,5.74,0,1.8-.42,3.61-1.25,5.42-.83,1.81-1.98,3.41-3.44,4.8-1.46,1.39-3.13,2.54-5,3.44-1.88.9-3.86,1.36-5.94,1.36-3.62,0-7.02-1.39-10.22-4.17-3.2-2.78-5.14-6.4-5.84-10.84-2.5.28-5.42.66-8.76,1.15-3.34.49-6.54,1.01-9.59,1.56-3.06.55-5.63,1.18-7.72,1.88-2.08.69-3.13,1.32-3.13,1.88-.42-1.67-.63-3.2-.63-4.59,0-2.09.35-3.83,1.04-5.21.7-1.39,1.5-2.5,2.4-3.34.91-.83,1.81-1.46,2.71-1.88.91-.42,1.56-.7,1.98-.83,3.34-.56,6.81-.94,10.43-1.15,3.61-.21,7.64-.45,12.09-.73.14-.7.28-1.29.42-1.77.14-.49.28-1.08.42-1.77-1.25.56-2.57,1.11-3.96,1.67-1.39.55-3.13.83-5.21.83-3.34,0-6.05-.73-8.13-2.19-2.08-1.46-3.72-3.23-4.9-5.32-1.18-2.08-2.01-4.31-2.5-6.67-.49-2.36-.8-4.45-.94-6.26,0-3.75.7-7.75,2.09-11.99,1.39-4.24,3.37-8.13,5.94-11.68,2.57-3.54,5.66-6.5,9.28-8.86,3.61-2.36,7.72-3.68,12.3-3.96,2.78,0,5.14.28,7.09.83,1.95.56,3.68,1.18,5.21,1.88.69-1.11,1.36-2.22,1.98-3.34.62-1.11,1.01-2.29,1.15-3.54,1.53.83,2.92,1.67,4.17,2.5,1.11.7,2.15,1.53,3.13,2.5.97.97,1.6,2.02,1.88,3.13ZM659.31,492.1c1.53-6.26,3.26-12.23,5.21-17.93,1.95-5.7,3.68-10.77,5.21-15.22-2.37-1.95-5.14-2.92-8.34-2.92-2.5,0-5,.73-7.51,2.19-2.5,1.46-4.8,3.37-6.88,5.73-2.09,2.37-3.79,5.04-5.11,8.03-1.32,2.99-1.98,6.08-1.98,9.28,0,1.67.14,3.34.42,5,.28,1.67.76,3.16,1.46,4.48.69,1.32,1.74,2.43,3.13,3.34,1.39.91,3.27,1.36,5.63,1.36.69,0,1.53-.1,2.5-.31.97-.21,1.95-.45,2.92-.73.97-.28,1.77-.63,2.4-1.04s.94-.83.94-1.25ZM677.04,510.25c-2.37,0-4.9.28-7.61.83-2.71.55-6.15.97-10.32,1.25.42.14.9.21,1.46.21.42.14.8.21,1.15.21s.66.07.94.21c.69,2.78,2.05,5.21,4.07,7.3,2.01,2.08,4.34,3.13,6.99,3.13,1.8,0,3.86-.77,6.15-2.29,2.29-1.53,3.44-3.89,3.44-7.09,0-1.11-.45-2.02-1.36-2.71-.91-.7-2.54-1.04-4.9-1.04Z"/>
    <path class="st0" d="M730.42,480.63c.28.28.42.56.42.83-2.09,3.89-4.52,7.3-7.3,10.22-2.37,2.5-5.39,4.8-9.07,6.88-3.68,2.08-7.96,3.13-12.83,3.13-3.62,0-6.67-.77-9.18-2.29-2.5-1.53-4.52-3.44-6.05-5.74-1.53-2.29-2.61-4.76-3.23-7.4-.62-2.64-.94-5-.94-7.09,0-4.72.77-9.28,2.29-13.66,1.53-4.38,3.61-8.31,6.26-11.78,2.64-3.47,5.63-6.26,8.97-8.34,3.34-2.09,6.81-3.13,10.43-3.13,4.45,0,7.89,1.25,10.32,3.75,2.43,2.5,3.65,5.21,3.65,8.13s-.62,5.7-1.88,8.34c-1.25,2.64-2.96,4.97-5.11,6.99-2.16,2.02-4.69,3.62-7.61,4.8-2.92,1.18-5.98,1.77-9.18,1.77-2.23,0-4.1-.24-5.63-.73-1.53-.49-2.64-1.08-3.34-1.77-.83,2.5-1.25,5-1.25,7.51,0,3.89,1.22,7.4,3.65,10.53,2.43,3.13,5.66,4.69,9.7,4.69,3.06,0,6.15-.83,9.28-2.5,3.13-1.67,5.59-3.13,7.4-4.38,2.08-1.53,3.72-2.85,4.9-3.96,1.18-1.11,2.05-2.05,2.61-2.81.55-.76.94-1.32,1.15-1.67.21-.34.45-.52.73-.52s.55.07.83.21ZM697.47,461.24c-1.95,2.78-3.68,5.84-5.21,9.18.42.14,1.32.21,2.71.21,2.08,0,4.1-.49,6.05-1.46,1.95-.97,3.65-2.15,5.11-3.54,1.46-1.39,2.64-2.88,3.55-4.48.9-1.6,1.36-2.95,1.36-4.07,0-1.8-.97-2.71-2.92-2.71-1.39,0-3.02.52-4.9,1.56-1.88,1.04-3.79,2.82-5.74,5.32Z"/>
    <path class="st0" d="M777.76,475.42c.69.42,1.04.7,1.04.83,0,.28-.45,1.67-1.36,4.17-.91,2.5-2.23,5.18-3.96,8.03-1.74,2.85-3.83,5.46-6.26,7.82-2.43,2.37-5.18,3.54-8.24,3.54-2.64,0-5.11-1.28-7.4-3.86-2.29-2.57-3.44-6.36-3.44-11.37,0-4.03.59-8.2,1.77-12.51,1.18-4.31,2.54-8.34,4.07-12.1-1.53.28-2.99.49-4.38.62-1.39.14-2.85.21-4.38.21h-1.88c-.56,0-1.11-.07-1.67-.21-2.64,5.42-4.66,9.7-6.05,12.83-1.39,3.13-2.4,5.49-3.02,7.09-.62,1.6-1.08,2.64-1.36,3.13-.28.49-.62.73-1.04.73-1.11,0-1.67-.35-1.67-1.04v-.63c0-.14.07-.21.21-.21,1.11-2.78,2.47-6.5,4.07-11.16,1.6-4.66,2.82-9,3.65-13.03-2.37-1.53-3.96-3.37-4.8-5.53-.83-2.15-1.25-4-1.25-5.53s.14-2.68.42-3.44c.28-.76.97-1.15,2.09-1.15h1.25c.55,0,1.18.14,1.88.42,2.36.56,4.41,1.04,6.15,1.46,1.74.42,2.61.7,2.61.83-.42.97-.7,1.56-.83,1.77-.14.21-.35.45-.63.73,0,.28.31.49.94.63.63.14,1.39.28,2.29.42.9.14,1.91.24,3.02.31,1.11.07,2.15.1,3.13.1h5.84c.97-1.39,1.8-2.85,2.5-4.38.69-1.25,1.32-2.57,1.88-3.96.55-1.39.97-2.64,1.25-3.75.14,0,.69.31,1.67.94.97.63,2.05,1.43,3.23,2.4,1.18.97,2.26,2.05,3.23,3.23.97,1.18,1.46,2.4,1.46,3.65,0,2.09-.83,4.73-2.5,7.92-1.67,3.2-3.48,6.64-5.42,10.32-1.95,3.69-3.75,7.48-5.42,11.37-1.67,3.89-2.5,7.58-2.5,11.05,0,1.53.17,2.81.52,3.86.35,1.04,1.08,1.56,2.19,1.56,1.95,0,4.38-1.42,7.3-4.28,2.92-2.85,5.77-7.47,8.55-13.87l.42-.21c.28,0,.55.07.83.21Z"/>
  </g>
  <g>
    <path class="st0" d="M321.43,548.26h-10.11l-2.55,7.27h-3.33l9.37-25.42h3.14l9.37,25.42h-3.33l-2.55-7.27ZM312.25,545.56h8.24l-4.07-11.59h-.1l-4.07,11.59Z"/>
    <path class="st0" d="M330.22,555.53v-25.42h3.17v25.42h-3.17Z"/>
    <path class="st0" d="M356.55,530.12c4.77,0,8.14,3.35,8.14,8.16s-3.4,8.19-8.17,8.19h-6.39v9.07h-3.17v-25.42h9.6ZM350.12,543.64h5.6c3.63,0,5.71-1.99,5.71-5.37s-2.06-5.34-5.71-5.34h-5.6v10.71Z"/>
    <path class="st0" d="M390.75,542.83c0,8.07-4.51,13.12-11.72,13.12s-11.71-5.06-11.71-13.12,4.51-13.14,11.71-13.14,11.72,5.07,11.72,13.14ZM370.58,542.83c0,6.25,3.26,10.2,8.45,10.2s8.46-3.95,8.46-10.2-3.26-10.22-8.46-10.22-8.45,3.95-8.45,10.22Z"/>
    <path class="st0" d="M402.05,555.53h-2.99l-6.92-25.42h3.31l5.09,20.75h.14l5.73-20.75h3.2l5.73,20.75h.14l5.09-20.75h3.31l-6.92,25.42h-2.99l-5.86-20.17h-.18l-5.87,20.17Z"/>
    <path class="st0" d="M442.87,555.53h-15.75v-25.42h15.75v2.85h-12.58v8.16h11.93v2.82h-11.93v8.74h12.58v2.85Z"/>
    <path class="st0" d="M450.21,555.53h-3.17v-25.42h9.71c4.9,0,8.1,2.99,8.1,7.57,0,3.54-1.92,6.29-5.11,7.29l5.88,10.55h-3.72l-5.44-10.06h-6.25v10.06ZM450.21,542.68h6.25c3.26,0,5.11-1.76,5.11-4.88s-1.97-4.86-5.25-4.86h-6.11v9.74Z"/>
    <path class="st0" d="M484.57,555.53h-15.75v-25.42h15.75v2.85h-12.58v8.16h11.93v2.82h-11.93v8.74h12.58v2.85Z"/>
    <path class="st0" d="M497.46,530.12c7.54,0,12,4.7,12,12.7s-4.44,12.72-12,12.72h-8.72v-25.42h8.72ZM491.91,552.68h5.34c5.76,0,8.97-3.52,8.97-9.83s-3.19-9.88-8.97-9.88h-5.34v19.71Z"/>
  </g>
</svg>