<?xml version="1.0" encoding="UTF-8"?>
<svg id="Livello_1" xmlns="http://www.w3.org/2000/svg" version="1.1" viewBox="0 0 632.83 125.55">
  <!-- Generator: Adobe Illustrator 29.6.1, SVG Export Plug-In . SVG Version: 2.1.1 Build 9)  -->
  <defs>
    <style>
      .st0 {
        fill: #fff;
      }
    </style>
  </defs>
  <path class="st0" d="M38.52,53.16q-.71.34-1.54.78"/>
  <path class="st0" d="M36.98,53.16q.71.34,1.54.78"/>
  <path class="st0" d="M37.75,45.68"/>
  <path class="st0" d="M37.75,45.68"/>
  <g>
    <path class="st0" d="M166.14,69.5c-.39.79-1.45,1.6-3.16,2.43-1.72.84-3.7,1.25-5.96,1.25-1.08,0-2.43-.15-4.05-.44s-2.82-.88-3.6-1.77c-2.85,3.43-6.35,5.86-10.52,7.28-4.17,1.42-8.31,2.13-12.43,2.13s-7.97-.61-11.55-1.84c-3.58-1.23-6.65-2.94-9.2-5.15-2.55-2.21-4.56-4.83-6.03-7.87-1.47-3.04-2.21-6.33-2.21-9.86,0-1.86.32-3.87.96-6.03.64-2.16,1.52-4.12,2.65-5.89,1.13-1.77,2.48-3.24,4.05-4.41,1.57-1.18,3.33-1.77,5.3-1.77,2.06,0,4.05.52,5.96,1.55s3.6,2.08,5.08,3.16c6.47-7.45,11.35-14.05,14.64-19.79,3.29-5.74,5.08-10.37,5.37-13.9.29.1.86.39,1.69.88.83.49,1.69,1.1,2.57,1.84.88.74,1.67,1.6,2.35,2.57.68.98,1.03,1.96,1.03,2.94,0,.69-.25,1.45-.74,2.28-.49.83-.74,1.79-.74,2.87,0,1.86.39,4.05,1.18,6.55.78,2.5,1.64,5.18,2.58,8.02.93,2.85,1.79,5.84,2.57,8.98.78,3.14,1.18,6.28,1.18,9.42,0,2.55-.32,5-.96,7.36-.64,2.35-1.74,4.66-3.31,6.92,1.18.59,2.3,1.08,3.38,1.47,1.08.39,2.21.59,3.38.59,2.26,0,3.85-.17,4.78-.51.93-.34,1.59-.74,1.99-1.18.39-.44.66-.86.81-1.25.15-.39.51-.59,1.1-.59.39,0,.59.2.59.59,0,.29-.15.59-.44.88-.1.2-.2.29-.29.29ZM109.2,42.28c-1.96,1.08-3.51,2.87-4.64,5.37-1.13,2.5-1.69,5.18-1.69,8.02,0,.79.05,1.37.15,1.77,1.47-.98,3.63-2.5,6.47-4.56,2.84-2.06,5.83-4.61,8.98-7.65-1.37-.98-2.75-1.77-4.12-2.35-1.38-.59-2.6-.88-3.68-.88-.39,0-.88.1-1.47.29ZM124.79,73.33c3.14,0,6.37-.46,9.71-1.4,3.33-.93,6.13-2.67,8.39-5.22-3.43-2.55-6.7-5.44-9.78-8.68-3.09-3.24-6.84-6.67-11.26-10.3-4.12,3.34-7.9,5.91-11.33,7.72-3.43,1.82-5.84,3.02-7.21,3.6.59,2.45,1.57,4.56,2.94,6.33,1.37,1.77,3.02,3.24,4.93,4.41,1.91,1.18,4.02,2.06,6.33,2.65,2.3.59,4.73.88,7.28.88ZM144.51,64.65c1.37-2.45,2.06-5.1,2.06-7.95,0-2.65-.29-5.17-.88-7.58-.59-2.4-1.3-4.73-2.13-6.99-.84-2.26-1.67-4.39-2.5-6.4-.83-2.01-1.45-3.9-1.84-5.66-2.26,2.75-4.59,5.4-6.99,7.95-2.41,2.55-4.88,4.95-7.43,7.21,3.92,3.63,7.43,7.16,10.52,10.59,3.09,3.43,6.15,6.38,9.2,8.83Z"/>
    <path class="st0" d="M191.15,44.2c.1.49.15.96.15,1.4v1.4c0,3.53-.76,6.89-2.28,10.08-1.52,3.19-3.07,5.76-4.64,7.72.39.2.98.29,1.77.29.88,0,1.71-.17,2.5-.52.78-.34,1.52-.74,2.21-1.18.69-.44,1.27-.83,1.77-1.18.49-.34.88-.51,1.18-.51s.44.25.44.74c0,.39-.17.96-.51,1.69-.35.74-.88,1.47-1.62,2.21-.74.74-1.77,1.37-3.09,1.91-1.32.54-2.92.81-4.78.81-1.18,0-2.4-.24-3.68-.74-.49.69-1.64,1.69-3.46,3.02-1.82,1.32-3.95,1.99-6.4,1.99-2.06,0-3.8-.44-5.22-1.32-1.42-.88-2.57-2.01-3.46-3.38-.88-1.37-1.55-2.84-1.99-4.41-.44-1.57-.66-3.09-.66-4.56,0-3.83.64-7.23,1.91-10.23,1.27-2.99,2.72-5.57,4.34-7.72,1.62-2.16,3.21-3.85,4.78-5.08,1.57-1.23,2.65-1.94,3.24-2.13.19,0,.46.12.81.37.34.25.91,1.01,1.69,2.28.78-.59,1.67-1.13,2.65-1.62.98-.49,2.26-.74,3.83-.74s2.89.37,3.97,1.1c1.08.74,1.94,1.6,2.57,2.57.64.98,1.13,2.01,1.47,3.09.34,1.08.52,1.96.52,2.65ZM171.14,69.65c.49,0,1.23-.19,2.21-.59.98-.39,2.16-1.23,3.53-2.5-2.55-1.57-4.24-3.73-5.08-6.47-.83-2.75-1.25-5.44-1.25-8.09,0-.59.02-1.2.07-1.84.05-.64.12-1.25.22-1.84-1.67,1.77-3.07,3.78-4.19,6.03-1.13,2.26-1.69,4.71-1.69,7.36s.54,4.59,1.62,5.81c1.08,1.23,2.6,1.94,4.56,2.13ZM183.65,54.49c.19-.59.34-1.23.44-1.91.1-.68.15-1.37.15-2.06,0-1.47-.05-2.84-.15-4.12-.1-1.27-.44-2.01-1.03-2.21-.79,0-1.52.39-2.21,1.18-.69.79-1.3,1.74-1.84,2.87-.54,1.13-.98,2.35-1.32,3.68-.34,1.32-.51,2.57-.51,3.75,0,1.08.19,2.45.59,4.12.39,1.67,1.18,2.7,2.35,3.09.78-1.08,1.47-2.3,2.06-3.68.59-1.37,1.08-2.94,1.47-4.71Z"/>
    <path class="st0" d="M226.9,55.53c.29.1.44.29.44.59-.49,2.16-1.57,4.32-3.24,6.47-1.67,2.16-3.63,4.1-5.88,5.81-2.26,1.72-4.64,3.12-7.14,4.19-2.5,1.08-4.83,1.62-6.99,1.62s-4.19-.47-5.81-1.4c-1.62-.93-2.97-2.11-4.05-3.53-1.08-1.42-1.89-3.02-2.43-4.78-.54-1.77-.81-3.48-.81-5.15,0-6.08,1.4-11.57,4.19-16.48,2.8-4.9,7.23-8.39,13.32-10.45.88-.29,1.77-.44,2.65-.44,2.16,0,3.87.57,5.15,1.69,1.27,1.13,2.26,2.4,2.94,3.83.69,1.42,1.13,2.8,1.32,4.12.2,1.32.29,2.13.29,2.43,0,1.08-.12,2.28-.37,3.6-.25,1.32-.61,2.57-1.1,3.75-.49,1.18-1.18,2.16-2.06,2.94-.88.79-1.91,1.18-3.09,1.18-.79,0-1.57-.1-2.35-.29-.79-.2-1.52-.39-2.21-.59-.79-.29-1.57-.59-2.35-.88,1.08-1.37,1.91-2.7,2.5-3.97.59-1.27.98-2.4,1.18-3.38.29-1.08.44-2.06.44-2.94,0-1.57-.59-2.35-1.77-2.35-1.08,0-2.33.54-3.75,1.62-1.42,1.08-2.82,2.48-4.19,4.19-1.37,1.72-2.53,3.68-3.46,5.88-.93,2.21-1.4,4.44-1.4,6.7,0,3.04.88,5.54,2.65,7.5,1.77,1.96,3.97,2.94,6.62,2.94,1.37,0,2.7-.24,3.97-.74,1.27-.49,2.5-1.05,3.68-1.69,1.18-.64,2.26-1.32,3.24-2.06.98-.74,1.81-1.4,2.5-1.99,1.86-1.47,3.19-2.7,3.97-3.68.78-.98,1.32-1.79,1.62-2.43.29-.64.52-1.1.66-1.4.15-.29.52-.44,1.1-.44Z"/>
    <path class="st0" d="M230.14,73.33c-2.85,0-4.93-1.1-6.25-3.31s-1.99-4.68-1.99-7.43c0-2.94.44-5.93,1.32-8.98.88-3.04,1.86-5.89,2.94-8.53,1.08-2.65,2.08-5,3.02-7.06.93-2.06,1.49-3.58,1.69-4.56-.1.2.22.44.96.74.74.29,1.54.74,2.43,1.32.88.59,1.71,1.35,2.5,2.28.78.93,1.18,2.13,1.18,3.6,0,1.18-.54,2.45-1.62,3.83-1.67,3.14-3.36,6.47-5.08,10.01-1.72,3.53-2.57,6.87-2.57,10.01,0,1.08.15,1.96.44,2.65.29.69.98,1.03,2.06,1.03,1.67,0,3.73-1,6.18-3.02,2.45-2.01,4.66-5.27,6.62-9.78l.29-.15c.39,0,.74.15,1.03.44l.29.29c0-.1-.22.71-.66,2.43-.44,1.72-1.25,3.63-2.43,5.74-1.18,2.11-2.77,4.05-4.78,5.81-2.01,1.77-4.54,2.65-7.58,2.65ZM243.53,29.04c-.49,1.08-1.23,1.96-2.21,2.65-.98.69-2.01,1.03-3.09,1.03-1.37,0-2.35-.49-2.94-1.47-.59-.98-.88-2.11-.88-3.38,0-1.57.46-2.84,1.4-3.83.93-.98,2.08-1.47,3.46-1.47s2.5.44,3.38,1.32c.88.88,1.32,1.96,1.32,3.24,0,.69-.15,1.32-.44,1.91Z"/>
    <path class="st0" d="M282.96,55.97c.49.29.74.49.74.59,0,.39-.32,1.62-.96,3.68-.64,2.06-1.54,4.27-2.72,6.62-1.18,2.35-2.63,4.49-4.34,6.4-1.72,1.91-3.66,2.87-5.81,2.87-1.47,0-2.97-.61-4.49-1.84-1.52-1.23-2.63-3.36-3.31-6.4-.39.49-.86,1.05-1.4,1.69-.54.64-1.23,1.23-2.06,1.77-.83.54-1.82,1.01-2.94,1.4-1.13.39-2.53.59-4.19.59-2.26,0-4.1-.54-5.52-1.62-1.42-1.08-2.53-2.4-3.31-3.97-.78-1.57-1.32-3.16-1.62-4.78s-.44-3.02-.44-4.19c0-2.75.54-5.61,1.62-8.61,1.08-2.99,2.57-5.71,4.49-8.17,1.91-2.45,4.17-4.46,6.77-6.03,2.6-1.57,5.47-2.35,8.61-2.35,2.16,0,3.85.32,5.08.96,1.23.64,2.38,1.3,3.46,1.99.2-.29.32-.61.37-.96.05-.34.12-.61.22-.81.1,0,.54.22,1.32.66.78.44,1.62,1.03,2.5,1.77.88.74,1.67,1.52,2.35,2.35.68.84,1.03,1.69,1.03,2.57,0,.79-.15,1.55-.44,2.28-.29.74-.64,1.5-1.03,2.28h-.15c-.79,1.47-1.64,3.07-2.57,4.78-.93,1.72-1.79,3.46-2.57,5.22-.79,1.77-1.45,3.58-1.99,5.44-.54,1.86-.81,3.68-.81,5.44,0,3.24.69,4.86,2.06,4.86s3.14-1.35,5.3-4.05c2.16-2.7,4.12-6.79,5.88-12.29,0-.1.1-.15.29-.15h.59ZM261.77,65.09c0-3.33.54-6.77,1.62-10.3,1.08-3.53,2.16-6.57,3.24-9.12-.88-.98-1.82-1.79-2.8-2.43-.98-.64-2.06-.96-3.24-.96-1.67,0-3.36.54-5.08,1.62-1.72,1.08-3.31,2.48-4.78,4.19-1.47,1.72-2.67,3.66-3.6,5.81-.93,2.16-1.4,4.32-1.4,6.47,0,1.08.07,2.16.22,3.24.15,1.08.49,2.11,1.03,3.09.54.98,1.27,1.77,2.21,2.35.93.59,2.23.88,3.9.88s3.24-.44,4.71-1.32c1.47-.88,2.8-2.06,3.97-3.53Z"/>
    <path class="st0" d="M297.97,4.03c.19,0,.74.2,1.62.59.88.39,1.84.91,2.87,1.54,1.03.64,1.94,1.4,2.72,2.28.78.88,1.18,1.82,1.18,2.8,0,.88-.17,1.79-.51,2.72-.35.93-.71,1.79-1.1,2.57-.69,1.47-1.69,3.66-3.02,6.55-1.32,2.89-2.77,6.13-4.34,9.71-1.57,3.58-3.19,7.33-4.86,11.26-1.67,3.92-3.16,7.68-4.49,11.26-1.32,3.58-2.41,6.87-3.24,9.86-.84,2.99-1.25,5.32-1.25,6.99,0,.2.02.44.07.74.05.29.17.44.37.44.49,0,1.74-.88,3.75-2.65,2.01-1.77,4.58-5.2,7.73-10.3.78-.78,1.32-1.18,1.62-1.18.19.1.29.34.29.74,0,.88-.59,2.41-1.77,4.56-1.18,2.16-2.57,4.34-4.19,6.55-1.62,2.21-3.29,4.14-5,5.81-1.72,1.67-3.12,2.5-4.19,2.5-.39,0-.86-.02-1.4-.07-.54-.05-1.08-.27-1.62-.66-.54-.39-1-1.01-1.4-1.84-.39-.83-.59-1.99-.59-3.46,0-2.06.32-4.66.96-7.8.64-3.14,1.47-6.55,2.5-10.23,1.03-3.68,2.21-7.53,3.53-11.55,1.32-4.02,2.67-7.95,4.05-11.77,1.37-3.83,2.7-7.45,3.97-10.89,1.27-3.43,2.45-6.42,3.53-8.98.29-1.08.64-2.16,1.03-3.24.29-.88.56-1.77.81-2.65.24-.88.37-1.62.37-2.21Z"/>
    <path class="st0" d="M417.3,10.35c.2.1.74.32,1.62.66.88.35,1.81.81,2.8,1.4.98.59,1.86,1.35,2.65,2.28.78.93,1.18,1.99,1.18,3.16,0,1.08-.25,2.16-.74,3.24-.79,1.47-1.86,3.73-3.24,6.77-1.37,3.04-2.85,6.5-4.41,10.37-1.57,3.88-3.16,7.92-4.78,12.14-1.62,4.22-3.07,8.26-4.34,12.14-1.28,3.88-2.33,7.36-3.16,10.45-.84,3.09-1.25,5.42-1.25,6.99-.1,0-.47-.07-1.1-.22-.64-.15-1.32-.44-2.06-.88s-1.4-1.05-1.99-1.84c-.59-.79-.88-1.82-.88-3.09,0-1.77.49-4.66,1.47-8.68.98-4.02,2.4-8.83,4.27-14.42-5.49,5.3-9.64,10.15-12.43,14.57-2.8,4.41-4.54,7.6-5.22,9.56,0,.2-.03.49-.07.88-.05.39-.27.59-.66.59-.29,0-.88-.76-1.77-2.28-.88-1.52-1.89-3.53-3.02-6.03-1.13-2.5-2.23-5.37-3.31-8.61-1.08-3.24-2.01-6.57-2.8-10.01-.1-.2-.15-.44-.15-.74-1.47,3.92-3.19,7.85-5.15,11.77-1.96,3.92-4.32,7.48-7.06,10.67-2.75,3.19-6.03,5.79-9.86,7.8-3.83,2.01-8.29,3.02-13.39,3.02-7.36,0-13.24-2.16-17.66-6.47-4.41-4.32-6.62-10.89-6.62-19.72,0-5.1.86-9.88,2.57-14.35,1.72-4.46,3.97-8.34,6.77-11.62,2.8-3.29,5.93-5.88,9.42-7.8,3.48-1.91,7.04-2.97,10.67-3.16,3.92,0,6.94.61,9.05,1.84,2.11,1.23,4.05,2.72,5.81,4.49-.79.98-1.47,1.72-2.06,2.21-.59.49-1.28.96-2.06,1.4-.79.44-1.57.66-2.35.66-.59,0-1.13-.1-1.62-.29-.69-.49-1.57-1.13-2.65-1.91-1.08-.78-2.75-1.18-5-1.18-2.85,0-5.91.81-9.2,2.43-3.29,1.62-6.06,3.8-8.31,6.55-2.94,3.14-4.88,6.25-5.81,9.34-.93,3.09-1.4,6.5-1.4,10.23,0,2.85.32,5.59.96,8.24.64,2.65,1.69,5,3.16,7.06,1.47,2.06,3.38,3.7,5.74,4.93,2.35,1.23,5.25,1.84,8.68,1.84,4.41,0,8.24-.81,11.48-2.43s6.01-3.68,8.31-6.18c2.3-2.5,4.19-5.32,5.67-8.46,1.47-3.14,2.7-6.23,3.68-9.27,1.86-5.89,3.97-11.77,6.33-17.66,2.35-5.88,3.92-12.06,4.71-18.54.1.1.64.34,1.62.74.98.39,2.01.93,3.09,1.62,1.08.69,1.99,1.55,2.72,2.58.74,1.03.96,2.18.66,3.46-.2.69-.32,1.15-.37,1.4-.05.25-.1.47-.15.66-.05.2-.12.42-.22.66-.1.25-.29.66-.59,1.25-1.28,2.75-2.16,5.86-2.65,9.34-.49,3.48-.74,7.04-.74,10.67,0,2.55.2,5.1.59,7.65.39,2.55.86,4.93,1.4,7.14.54,2.21,1.05,4.19,1.54,5.96.49,1.77.88,3.24,1.18,4.41,1.27-3.73,3.19-7.67,5.74-11.84,2.55-4.17,5.89-9.2,10.01-15.08,3.53-5.49,6.4-10.3,8.61-14.42,2.21-4.12,3.9-7.58,5.08-10.37,1.18-2.8,1.99-4.98,2.43-6.55.44-1.57.66-2.6.66-3.09Z"/>
    <path class="st0" d="M457.17,55.97c.49.29.74.49.74.59,0,.39-.32,1.62-.96,3.68-.64,2.06-1.54,4.27-2.72,6.62-1.18,2.35-2.63,4.49-4.34,6.4-1.72,1.91-3.66,2.87-5.81,2.87-1.47,0-2.97-.61-4.49-1.84-1.52-1.23-2.63-3.36-3.31-6.4-.39.49-.86,1.05-1.4,1.69-.54.64-1.23,1.23-2.06,1.77-.83.54-1.82,1.01-2.94,1.4-1.13.39-2.53.59-4.19.59-2.26,0-4.1-.54-5.52-1.62-1.42-1.08-2.53-2.4-3.31-3.97-.78-1.57-1.32-3.16-1.62-4.78s-.44-3.02-.44-4.19c0-2.75.54-5.61,1.62-8.61,1.08-2.99,2.57-5.71,4.49-8.17,1.91-2.45,4.17-4.46,6.77-6.03,2.6-1.57,5.47-2.35,8.61-2.35,2.16,0,3.85.32,5.08.96,1.23.64,2.38,1.3,3.46,1.99.19-.29.32-.61.37-.96.05-.34.12-.61.22-.81.1,0,.54.22,1.32.66.78.44,1.62,1.03,2.5,1.77.88.74,1.67,1.52,2.35,2.35.68.84,1.03,1.69,1.03,2.57,0,.79-.15,1.55-.44,2.28-.29.74-.64,1.5-1.03,2.28h-.15c-.79,1.47-1.64,3.07-2.57,4.78-.93,1.72-1.79,3.46-2.57,5.22-.79,1.77-1.45,3.58-1.99,5.44-.54,1.86-.81,3.68-.81,5.44,0,3.24.68,4.86,2.06,4.86s3.14-1.35,5.3-4.05c2.16-2.7,4.12-6.79,5.89-12.29,0-.1.1-.15.29-.15h.59ZM435.98,65.09c0-3.33.54-6.77,1.62-10.3,1.08-3.53,2.16-6.57,3.24-9.12-.88-.98-1.82-1.79-2.8-2.43-.98-.64-2.06-.96-3.24-.96-1.67,0-3.36.54-5.08,1.62-1.72,1.08-3.31,2.48-4.78,4.19-1.47,1.72-2.67,3.66-3.6,5.81-.93,2.16-1.4,4.32-1.4,6.47,0,1.08.07,2.16.22,3.24.15,1.08.49,2.11,1.03,3.09.54.98,1.27,1.77,2.21,2.35.93.59,2.23.88,3.9.88s3.24-.44,4.71-1.32c1.47-.88,2.8-2.06,3.97-3.53Z"/>
    <path class="st0" d="M474.82,68.03c-1.37-1.96-2.06-4.56-2.06-7.8,0-2.65.29-5.03.88-7.14.59-2.11,1.37-4.49,2.35-7.14-.88,1.67-1.99,3.7-3.31,6.11-1.32,2.4-2.63,4.86-3.9,7.36-1.28,2.5-2.43,4.86-3.46,7.06-1.03,2.21-1.69,3.85-1.99,4.93-.49,1.28-.98,2.26-1.47,2.94-.49.68-1.06,1.32-1.69,1.91-.64.59-1.35.88-2.13.88-2.35,0-3.92-.91-4.71-2.72-.78-1.81-1.18-4.19-1.18-7.14,0-3.24.39-6.42,1.18-9.56.79-3.14,1.67-5.98,2.65-8.53.98-2.55,1.91-4.68,2.8-6.4.88-1.71,1.42-2.77,1.62-3.16.59-1.18,1.18-2.57,1.77-4.19s.98-2.77,1.18-3.46c.29,0,.83.25,1.62.74.78.49,1.55,1.1,2.28,1.84.74.74,1.4,1.54,1.99,2.43.59.88.88,1.72.88,2.5,0,1.67-.59,3.53-1.77,5.59-1.18,2.06-2.48,4.29-3.9,6.7-1.42,2.4-2.72,4.93-3.9,7.58-1.18,2.65-1.77,5.44-1.77,8.39,0,.79.05,1.38.15,1.77,3.24-6.18,6.06-11.3,8.46-15.38,2.4-4.07,4.49-7.36,6.25-9.86,1.77-2.5,3.24-4.46,4.41-5.89,1.18-1.42,2.13-2.6,2.87-3.53.74-.93,1.3-1.77,1.69-2.5.39-.74.74-1.79,1.03-3.16.1,0,.51.22,1.25.66.74.44,1.49,1.03,2.28,1.77.78.74,1.52,1.52,2.21,2.35.68.83,1.03,1.69,1.03,2.57,0,.29-.07.83-.22,1.62-.15.79-.42,1.37-.81,1.77-.79,1.67-1.74,3.41-2.87,5.22-1.13,1.82-2.21,3.7-3.24,5.67-1.03,1.96-1.91,3.95-2.65,5.96-.74,2.01-1.1,4-1.1,5.96,0,1.08.12,1.99.37,2.72.24.74.81,1.1,1.69,1.1,1.27,0,2.97-1,5.08-3.02,2.11-2.01,4.14-5.27,6.11-9.78l.29-.15c.29,0,.59.15.88.44l.29.29c0,.2-.32,1.15-.96,2.87-.64,1.72-1.54,3.6-2.72,5.66-1.18,2.06-2.63,3.92-4.34,5.59-1.72,1.67-3.66,2.5-5.81,2.5-.88,0-1.82-.19-2.8-.59-.98-.39-1.91-1.18-2.8-2.35Z"/>
    <path class="st0" d="M531.91,55.97c.49.29.74.49.74.59,0,.39-.32,1.62-.96,3.68-.64,2.06-1.54,4.27-2.72,6.62-1.18,2.35-2.63,4.49-4.34,6.4-1.72,1.91-3.66,2.87-5.81,2.87-1.47,0-2.97-.61-4.49-1.84-1.52-1.23-2.63-3.36-3.31-6.4-.39.49-.86,1.05-1.4,1.69-.54.64-1.23,1.23-2.06,1.77-.83.54-1.82,1.01-2.94,1.4-1.13.39-2.53.59-4.19.59-2.26,0-4.1-.54-5.52-1.62-1.42-1.08-2.53-2.4-3.31-3.97-.78-1.57-1.32-3.16-1.62-4.78s-.44-3.02-.44-4.19c0-2.75.54-5.61,1.62-8.61,1.08-2.99,2.57-5.71,4.49-8.17,1.91-2.45,4.17-4.46,6.77-6.03,2.6-1.57,5.47-2.35,8.61-2.35,2.16,0,3.85.32,5.08.96,1.23.64,2.38,1.3,3.46,1.99.19-.29.32-.61.37-.96.05-.34.12-.61.22-.81.1,0,.54.22,1.32.66.78.44,1.62,1.03,2.5,1.77.88.74,1.67,1.52,2.35,2.35.68.84,1.03,1.69,1.03,2.57,0,.79-.15,1.55-.44,2.28-.29.74-.64,1.5-1.03,2.28h-.15c-.79,1.47-1.64,3.07-2.57,4.78-.93,1.72-1.79,3.46-2.57,5.22-.79,1.77-1.45,3.58-1.99,5.44-.54,1.86-.81,3.68-.81,5.44,0,3.24.68,4.86,2.06,4.86s3.14-1.35,5.3-4.05c2.16-2.7,4.12-6.79,5.89-12.29,0-.1.1-.15.29-.15h.59ZM510.72,65.09c0-3.33.54-6.77,1.62-10.3,1.08-3.53,2.16-6.57,3.24-9.12-.88-.98-1.82-1.79-2.8-2.43-.98-.64-2.06-.96-3.24-.96-1.67,0-3.36.54-5.08,1.62-1.72,1.08-3.31,2.48-4.78,4.19-1.47,1.72-2.67,3.66-3.6,5.81-.93,2.16-1.4,4.32-1.4,6.47,0,1.08.07,2.16.22,3.24.15,1.08.49,2.11,1.03,3.09.54.98,1.27,1.77,2.21,2.35.93.59,2.23.88,3.9.88s3.24-.44,4.71-1.32c1.47-.88,2.8-2.06,3.97-3.53Z"/>
    <path class="st0" d="M566.93,36.4c.1.2.15.54.15,1.03,0,.79-.2,1.62-.59,2.5-2.35,5-4.91,10.5-7.65,16.48-2.75,5.98-5.15,12.02-7.21,18.1,1.86.1,3.77.24,5.74.44,1.96.2,3.73.56,5.3,1.1,1.57.54,2.84,1.32,3.83,2.35.98,1.03,1.47,2.38,1.47,4.05,0,1.27-.29,2.55-.88,3.83-.59,1.27-1.4,2.4-2.43,3.38-1.03.98-2.21,1.79-3.53,2.43-1.32.64-2.72.96-4.19.96-2.55,0-4.95-.98-7.21-2.94-2.26-1.96-3.63-4.51-4.12-7.65-1.77.2-3.83.46-6.18.81-2.35.34-4.61.71-6.77,1.1-2.16.39-3.97.83-5.44,1.32-1.47.49-2.21.93-2.21,1.32-.29-1.18-.44-2.26-.44-3.24,0-1.47.25-2.7.74-3.68.49-.98,1.05-1.77,1.69-2.35.64-.59,1.28-1.03,1.91-1.32.64-.29,1.1-.49,1.4-.59,2.35-.39,4.81-.66,7.36-.81,2.55-.15,5.39-.32,8.53-.52.1-.49.2-.91.29-1.25.1-.34.2-.76.29-1.25-.88.39-1.82.79-2.8,1.18-.98.39-2.21.59-3.68.59-2.35,0-4.27-.52-5.74-1.55-1.47-1.03-2.63-2.28-3.46-3.75-.83-1.47-1.42-3.04-1.77-4.71-.34-1.67-.56-3.14-.66-4.41,0-2.65.49-5.47,1.47-8.46.98-2.99,2.38-5.74,4.19-8.24,1.81-2.5,4-4.58,6.55-6.25,2.55-1.67,5.44-2.6,8.68-2.8,1.96,0,3.63.2,5,.59,1.37.39,2.6.83,3.68,1.32.49-.78.96-1.57,1.4-2.35.44-.78.71-1.62.81-2.5,1.08.59,2.06,1.18,2.94,1.77.78.49,1.52,1.08,2.21,1.77.69.69,1.13,1.42,1.32,2.21ZM547.65,67.88c1.08-4.41,2.3-8.63,3.68-12.65,1.37-4.02,2.6-7.6,3.68-10.74-1.67-1.37-3.63-2.06-5.89-2.06-1.77,0-3.53.52-5.3,1.55-1.77,1.03-3.38,2.38-4.86,4.05-1.47,1.67-2.67,3.56-3.6,5.67-.93,2.11-1.4,4.29-1.4,6.55,0,1.18.1,2.35.29,3.53.2,1.18.54,2.23,1.03,3.16.49.93,1.23,1.72,2.21,2.35.98.64,2.3.96,3.97.96.49,0,1.08-.07,1.77-.22.69-.15,1.37-.32,2.06-.51.68-.2,1.25-.44,1.69-.74s.66-.59.66-.88ZM560.16,80.69c-1.67,0-3.46.2-5.37.59-1.91.39-4.34.68-7.28.88.29.1.64.15,1.03.15.29.1.56.15.81.15s.46.05.66.15c.49,1.96,1.45,3.68,2.87,5.15,1.42,1.47,3.06,2.21,4.93,2.21,1.27,0,2.72-.54,4.34-1.62,1.62-1.08,2.43-2.75,2.43-5,0-.79-.32-1.42-.96-1.91-.64-.49-1.79-.74-3.46-.74Z"/>
    <path class="st0" d="M597.83,59.79c.19.2.29.39.29.59-1.47,2.75-3.19,5.15-5.15,7.21-1.67,1.77-3.8,3.38-6.4,4.86-2.6,1.47-5.62,2.21-9.05,2.21-2.55,0-4.71-.54-6.47-1.62-1.77-1.08-3.19-2.43-4.27-4.05-1.08-1.62-1.84-3.36-2.28-5.22-.44-1.86-.66-3.53-.66-5,0-3.33.54-6.55,1.62-9.64,1.08-3.09,2.55-5.86,4.41-8.31,1.86-2.45,3.97-4.41,6.33-5.88,2.35-1.47,4.81-2.21,7.36-2.21,3.14,0,5.57.88,7.28,2.65,1.71,1.77,2.57,3.68,2.57,5.74s-.44,4.02-1.32,5.88c-.88,1.86-2.08,3.51-3.6,4.93-1.52,1.42-3.31,2.55-5.37,3.38-2.06.83-4.22,1.25-6.47,1.25-1.57,0-2.89-.17-3.97-.52-1.08-.34-1.86-.76-2.35-1.25-.59,1.77-.88,3.53-.88,5.3,0,2.75.86,5.22,2.57,7.43,1.71,2.21,4,3.31,6.84,3.31,2.16,0,4.34-.59,6.55-1.77,2.21-1.18,3.95-2.21,5.22-3.09,1.47-1.08,2.62-2.01,3.46-2.8.83-.78,1.45-1.45,1.84-1.99.39-.54.66-.93.81-1.18.15-.24.32-.37.51-.37s.39.05.59.15ZM574.58,46.11c-1.37,1.96-2.6,4.12-3.68,6.47.29.1.93.15,1.91.15,1.47,0,2.89-.34,4.27-1.03,1.37-.68,2.57-1.52,3.6-2.5,1.03-.98,1.86-2.03,2.5-3.16.64-1.13.96-2.08.96-2.87,0-1.27-.69-1.91-2.06-1.91-.98,0-2.13.37-3.46,1.1-1.32.74-2.67,1.99-4.05,3.75Z"/>
    <path class="st0" d="M631.23,56.11c.49.29.74.49.74.59,0,.2-.32,1.18-.96,2.94-.64,1.77-1.57,3.66-2.8,5.67-1.23,2.01-2.7,3.85-4.41,5.52-1.72,1.67-3.66,2.5-5.81,2.5-1.86,0-3.6-.91-5.22-2.72-1.62-1.81-2.43-4.49-2.43-8.02,0-2.84.42-5.79,1.25-8.83.83-3.04,1.79-5.89,2.87-8.53-1.08.2-2.11.34-3.09.44-.98.1-2.01.15-3.09.15h-1.32c-.39,0-.79-.05-1.18-.15-1.86,3.83-3.29,6.84-4.27,9.05-.98,2.21-1.69,3.88-2.13,5-.44,1.13-.76,1.86-.96,2.21-.2.35-.44.52-.74.52-.78,0-1.18-.24-1.18-.74v-.44c0-.1.05-.15.15-.15.79-1.96,1.74-4.58,2.87-7.87,1.13-3.29,1.99-6.35,2.57-9.2-1.67-1.08-2.8-2.38-3.38-3.9-.59-1.52-.88-2.82-.88-3.9s.1-1.89.29-2.43c.2-.54.69-.81,1.47-.81h.88c.39,0,.83.1,1.32.29,1.67.39,3.11.74,4.34,1.03,1.23.29,1.84.49,1.84.59-.29.69-.49,1.1-.59,1.25-.1.15-.25.32-.44.51,0,.2.22.35.66.44.44.1.98.2,1.62.29.64.1,1.35.17,2.13.22.78.05,1.52.07,2.21.07h4.12c.68-.98,1.27-2.01,1.77-3.09.49-.88.93-1.81,1.32-2.8.39-.98.69-1.86.88-2.65.1,0,.49.22,1.18.66.68.44,1.45,1.01,2.28,1.69.83.69,1.59,1.45,2.28,2.28.68.83,1.03,1.69,1.03,2.57,0,1.47-.59,3.34-1.77,5.59-1.18,2.26-2.45,4.69-3.83,7.28-1.37,2.6-2.65,5.27-3.83,8.02-1.18,2.75-1.77,5.35-1.77,7.8,0,1.08.12,1.99.37,2.72.24.74.76,1.1,1.54,1.1,1.37,0,3.09-1,5.15-3.02,2.06-2.01,4.07-5.27,6.03-9.78l.29-.15c.19,0,.39.05.59.15Z"/>
  </g>
  <g>
    <path class="st0" d="M309.26,117.5h-7.13l-1.8,5.13h-2.35l6.61-17.93h2.21l6.61,17.93h-2.35l-1.8-5.13ZM302.79,115.6h5.82l-2.87-8.18h-.07l-2.87,8.18Z"/>
    <path class="st0" d="M315.46,122.64v-17.93h2.24v17.93h-2.24Z"/>
    <path class="st0" d="M334.04,104.7c3.37,0,5.74,2.36,5.74,5.75s-2.4,5.78-5.77,5.78h-4.51v6.4h-2.24v-17.93h6.77ZM329.5,114.25h3.95c2.56,0,4.03-1.4,4.03-3.79s-1.45-3.77-4.03-3.77h-3.95v7.56Z"/>
    <path class="st0" d="M358.17,113.68c0,5.69-3.18,9.26-8.27,9.26s-8.26-3.57-8.26-9.26,3.18-9.27,8.26-9.27,8.27,3.58,8.27,9.27ZM343.94,113.68c0,4.41,2.3,7.2,5.97,7.2s5.97-2.78,5.97-7.2-2.3-7.21-5.97-7.21-5.97,2.78-5.97,7.21Z"/>
    <path class="st0" d="M366.14,122.64h-2.11l-4.88-17.93h2.34l3.59,14.64h.1l4.04-14.64h2.26l4.04,14.64h.1l3.59-14.64h2.34l-4.88,17.93h-2.11l-4.14-14.23h-.12l-4.14,14.23Z"/>
    <path class="st0" d="M394.94,122.64h-11.11v-17.93h11.11v2.01h-8.87v5.75h8.41v1.99h-8.41v6.16h8.87v2.01Z"/>
    <path class="st0" d="M400.12,122.64h-2.24v-17.93h6.85c3.45,0,5.72,2.11,5.72,5.34,0,2.5-1.35,4.44-3.6,5.14l4.15,7.44h-2.62l-3.84-7.1h-4.41v7.1ZM400.12,113.57h4.41c2.3,0,3.6-1.24,3.6-3.44s-1.39-3.43-3.7-3.43h-4.31v6.87Z"/>
    <path class="st0" d="M424.37,122.64h-11.11v-17.93h11.11v2.01h-8.87v5.75h8.41v1.99h-8.41v6.16h8.87v2.01Z"/>
    <path class="st0" d="M433.46,104.7c5.32,0,8.46,3.32,8.46,8.96s-3.13,8.97-8.46,8.97h-6.15v-17.93h6.15ZM429.55,120.62h3.77c4.06,0,6.33-2.49,6.33-6.93s-2.25-6.97-6.33-6.97h-3.77v13.91Z"/>
  </g>
  <path class="st0" d="M39.49,45.94q-.78.37-1.69.85"/>
  <path class="st0" d="M37.8,45.94q.78.37,1.69.85"/>
  <path class="st0" d="M38.65,37.74"/>
  <path class="st0" d="M38.65,37.74"/>
  <path class="st0" d="M39.23,27.46C18.31,27.46,1.34,49.09,1.34,75.77s16.96,48.31,37.88,48.31,37.88-21.63,37.88-48.31S60.15,27.46,39.23,27.46ZM75.68,73.03c-.37.33-.75.66-1.12,1-2.49-2.21-4.97-4.41-7.46-6.62,2.29-2.03,4.57-4.05,6.85-6.08.95,3.72,1.55,7.63,1.73,11.7ZM47,67.32c-2.53,2.24-5.04,4.46-7.55,6.7-2.49-2.21-4.97-4.41-7.46-6.62,2.53-2.24,5.04-4.47,7.55-6.7,2.49,2.21,4.97,4.41,7.46,6.62ZM40.87,59.84c2.53-2.24,5.04-4.47,7.55-6.7,2.49,2.21,4.97,4.41,7.46,6.62-2.53,2.24-5.04,4.46-7.55,6.7-2.49-2.21-4.97-4.41-7.46-6.62ZM30.52,66.45c-2.49-2.21-4.97-4.41-7.46-6.62,2.53-2.24,5.04-4.47,7.55-6.7,2.49,2.21,4.97,4.41,7.46,6.62-2.53,2.24-5.04,4.46-7.55,6.7ZM30.86,68.92c2.49,2.21,4.97,4.41,7.46,6.62-2.52,2.24-5.04,4.46-7.55,6.7-2.49-2.21-4.97-4.41-7.46-6.62,2.53-2.24,5.04-4.47,7.55-6.7ZM37.99,91.59c-2.53,2.24-5.04,4.46-7.55,6.7-2.49-2.21-4.97-4.41-7.46-6.62,2.53-2.24,5.04-4.47,7.55-6.7,2.49,2.21,4.97,4.41,7.46,6.62ZM31.98,83.54c2.53-2.24,5.04-4.47,7.55-6.7,2.49,2.21,4.97,4.41,7.46,6.62-2.53,2.24-5.04,4.46-7.55,6.7-2.49-2.21-4.97-4.41-7.46-6.62ZM48.34,84.97c2.49,2.21,4.97,4.41,7.46,6.62-2.53,2.24-5.04,4.46-7.55,6.7-2.49-2.21-4.97-4.41-7.46-6.62,2.53-2.24,5.04-4.47,7.55-6.7ZM48.27,82.23c-2.49-2.21-4.97-4.41-7.46-6.62,2.53-2.24,5.04-4.47,7.55-6.7,2.49,2.21,4.97,4.41,7.46,6.62-2.53,2.24-5.04,4.46-7.55,6.7ZM49.49,67.4c2.53-2.24,5.04-4.47,7.55-6.7,2.49,2.21,4.97,4.41,7.46,6.62-2.52,2.24-5.04,4.46-7.55,6.7-2.49-2.21-4.97-4.41-7.46-6.62ZM49.71,51.96c2.5-2.21,4.97-4.41,7.46-6.62,2.52,2.23,5.03,4.46,7.55,6.7-2.5,2.21-4.97,4.41-7.46,6.62-2.52-2.24-5.03-4.46-7.55-6.7ZM48.38,50.78c-2.53-2.25-5.05-4.48-7.58-6.72,2.5-2.21,4.98-4.41,7.46-6.62,2.53,2.24,5.04,4.47,7.58,6.72-2.5,2.22-4.98,4.42-7.46,6.62ZM47.05,51.96c-2.53,2.24-5.05,4.47-7.58,6.72-2.53-2.24-5.04-4.47-7.58-6.72,2.53-2.24,5.04-4.47,7.58-6.72,2.53,2.24,5.05,4.47,7.58,6.72ZM30.57,50.78c-2.49-2.21-4.97-4.41-7.46-6.62,2.54-2.25,5.05-4.48,7.58-6.72,2.5,2.21,4.97,4.41,7.46,6.62-2.53,2.24-5.05,4.48-7.58,6.72ZM29.24,51.96c-2.52,2.24-5.04,4.46-7.55,6.7-2.49-2.21-4.97-4.41-7.46-6.62,2.53-2.24,5.04-4.47,7.55-6.7,2.49,2.21,4.97,4.41,7.46,6.62ZM21.73,60.71c2.49,2.21,4.97,4.41,7.46,6.62-2.53,2.24-5.04,4.46-7.55,6.7-2.49-2.21-4.97-4.41-7.46-6.62,2.53-2.24,5.04-4.47,7.55-6.7ZM20.51,75.53c-2.52,2.24-5.04,4.46-7.55,6.7-2.49-2.21-4.97-4.41-7.46-6.62,2.53-2.24,5.04-4.47,7.55-6.7,2.49,2.21,4.97,4.41,7.46,6.62ZM21.78,76.85c2.49,2.21,4.97,4.41,7.46,6.62-2.52,2.24-5.04,4.46-7.55,6.7-2.49-2.21-4.97-4.41-7.46-6.62,2.53-2.24,5.04-4.47,7.55-6.7ZM29.07,99.43c-2.49,2.21-4.97,4.41-7.46,6.62-2.52-2.23-5.03-4.46-7.55-6.7,2.49-2.21,4.97-4.41,7.46-6.62,2.52,2.23,5.03,4.46,7.55,6.7ZM30.4,100.61c2.52,2.24,5.04,4.47,7.58,6.72-2.49,2.21-4.97,4.4-7.46,6.62-2.52-2.23-5.04-4.47-7.58-6.72,2.49-2.21,4.97-4.41,7.46-6.62ZM31.73,99.43c2.53-2.24,5.05-4.48,7.58-6.72,2.53,2.24,5.05,4.47,7.58,6.72-2.53,2.24-5.05,4.47-7.58,6.72-2.53-2.25-5.05-4.47-7.58-6.72ZM48.21,100.61c2.48,2.2,4.96,4.4,7.46,6.62-2.53,2.24-5.04,4.47-7.58,6.72-2.49-2.2-4.97-4.4-7.46-6.62,2.53-2.24,5.04-4.47,7.58-6.72ZM49.54,99.43c2.52-2.23,5.03-4.46,7.55-6.7,2.49,2.21,4.97,4.4,7.46,6.62-2.52,2.24-5.03,4.46-7.55,6.7-2.49-2.21-4.97-4.4-7.46-6.62ZM57,90.16c-2.49-2.21-4.97-4.41-7.46-6.62,2.53-2.24,5.04-4.47,7.55-6.7,2.49,2.21,4.97,4.41,7.46,6.62-2.52,2.24-5.04,4.46-7.55,6.7ZM58.41,75.61c2.53-2.24,5.04-4.47,7.55-6.7,2.49,2.21,4.97,4.41,7.46,6.62-2.53,2.24-5.04,4.46-7.55,6.7-2.49-2.21-4.97-4.41-7.46-6.62ZM65.84,66.45c-2.49-2.21-4.97-4.41-7.46-6.62,2.53-2.24,5.04-4.47,7.55-6.7,2.49,2.21,4.97,4.41,7.46,6.62-2.53,2.24-5.04,4.46-7.55,6.7ZM72.05,56.5c-1.61-1.42-3.21-2.85-4.83-4.29.73-.65,1.45-1.28,2.18-1.93,1.04,2.01,1.93,4.07,2.66,6.22ZM62.63,40.52c2.29,2.49,4.23,5.22,5.9,8.17-.89.78-1.76,1.56-2.65,2.35-2.52-2.23-5.03-4.46-7.55-6.7,1.45-1.28,2.87-2.54,4.3-3.81ZM53.59,33.06c2.55,1.4,4.89,3.11,7.03,5.09.32.3.64.61.97.92-1.48,1.31-2.94,2.61-4.41,3.91-2.53-2.24-5.05-4.47-7.57-6.71.02-.03.03-.05.05-.06,1.17-1.04,2.35-2.07,3.51-3.12.15-.14.26-.14.43-.04ZM51.65,32.1c-1.14,1.01-2.25,2-3.38,3-2.1-1.86-4.18-3.71-6.27-5.56,3.37.27,6.57,1.14,9.65,2.56ZM39.47,29.66c2.49,2.21,4.97,4.41,7.46,6.62-2.5,2.21-4.98,4.41-7.46,6.62-2.49-2.21-4.97-4.41-7.46-6.62,2.5-2.22,4.98-4.42,7.46-6.62ZM36.97,29.52c-2.1,1.86-4.19,3.72-6.29,5.58-1.15-1.02-2.29-2.03-3.45-3.06,3.12-1.41,6.35-2.27,9.74-2.52ZM17.42,38.84c.82-.73,1.62-1.49,2.46-2.19,1.7-1.42,3.55-2.64,5.5-3.7.09-.05.16-.06.25.02,1.21,1.08,2.42,2.15,3.64,3.23.03.02.05.05.07.09-2.53,2.24-5.04,4.47-7.56,6.71-1.51-1.34-3-2.66-4.52-4,.06-.05.11-.1.16-.14ZM16.04,40.26c1.48,1.31,2.93,2.6,4.41,3.91-2.53,2.24-5.03,4.46-7.55,6.7-.93-.83-1.85-1.64-2.77-2.46,1.68-2.94,3.62-5.66,5.92-8.14ZM9.26,50c.78.69,1.54,1.36,2.31,2.05-1.72,1.53-3.42,3.03-5.12,4.54.77-2.27,1.71-4.45,2.81-6.59ZM12.94,53.14c2.49,2.21,4.97,4.41,7.46,6.62-2.53,2.24-5.04,4.46-7.55,6.7-2.49-2.21-4.97-4.41-7.46-6.62,2.53-2.24,5.04-4.47,7.55-6.7ZM4.67,61.54c2.28,2.02,4.56,4.04,6.85,6.08-2.49,2.21-4.97,4.41-7.46,6.62-.37-.33-.75-.66-1.12-1,.18-4.06.78-7.98,1.73-11.7ZM3.24,77.62c.29-.26.58-.51.87-.77,2.52,2.23,5.03,4.46,7.56,6.7-2.24,1.99-4.47,3.96-6.71,5.95-.96-3.77-1.55-7.75-1.71-11.88ZM12.86,84.97c2.49,2.21,4.97,4.41,7.46,6.62-2.53,2.24-5.04,4.46-7.55,6.7-2.49-2.21-4.97-4.41-7.46-6.62,2.53-2.24,5.04-4.47,7.55-6.7ZM6.28,94.81c1.7,1.51,3.4,3.01,5.12,4.54-.77.68-1.53,1.36-2.31,2.05-1.11-2.13-2.05-4.32-2.81-6.59ZM15.87,111.13c-2.3-2.48-4.25-5.2-5.92-8.14.92-.82,1.84-1.63,2.77-2.46,2.52,2.23,5.03,4.46,7.55,6.7-1.47,1.31-2.93,2.6-4.41,3.91ZM25.21,118.44c-1.95-1.05-3.79-2.27-5.5-3.7-.84-.7-1.64-1.46-2.46-2.19-.05-.04-.1-.09-.16-.14,1.52-1.35,3.01-2.67,4.52-4,2.52,2.23,5.04,4.47,7.56,6.71-.03.03-.05.06-.07.09-1.21,1.07-2.43,2.15-3.64,3.23-.09.08-.16.07-.25.02ZM27.07,119.35c1.16-1.03,2.3-2.04,3.45-3.06,2.1,1.86,4.2,3.72,6.29,5.58-3.39-.25-6.62-1.11-9.74-2.52ZM31.84,115.12c2.49-2.21,4.97-4.41,7.46-6.62,2.49,2.2,4.97,4.4,7.46,6.62-2.49,2.21-4.97,4.41-7.46,6.62-2.48-2.2-4.96-4.4-7.46-6.62ZM41.83,121.85c2.08-1.85,4.17-3.7,6.27-5.56,1.13,1,2.25,1.99,3.38,3-3.08,1.41-6.28,2.28-9.65,2.56ZM60.45,113.24c-2.14,1.98-4.47,3.69-7.03,5.09-.17.09-.27.1-.43-.04-1.16-1.05-2.34-2.08-3.51-3.12-.01-.01-.02-.03-.05-.06,2.52-2.23,5.04-4.46,7.57-6.71,1.47,1.31,2.93,2.6,4.41,3.91-.33.32-.64.62-.97.92ZM62.63,111.04c-1.43-1.27-2.86-2.53-4.3-3.81,2.53-2.24,5.04-4.46,7.55-6.7.89.79,1.76,1.56,2.65,2.35-1.67,2.95-3.61,5.68-5.9,8.17ZM69.39,101.28c-.73-.65-1.45-1.28-2.18-1.93,1.62-1.44,3.23-2.86,4.83-4.29-.73,2.14-1.62,4.2-2.66,6.22ZM65.75,98.29c-2.49-2.21-4.97-4.41-7.46-6.62,2.53-2.24,5.04-4.47,7.55-6.7,2.49,2.21,4.97,4.41,7.46,6.62-2.52,2.24-5.04,4.46-7.55,6.7ZM73.81,89.5c-2.24-1.99-4.47-3.96-6.71-5.95,2.53-2.24,5.04-4.47,7.56-6.7.29.26.58.51.87.77-.16,4.12-.76,8.1-1.71,11.88Z"/>
  <g id="surface1">
    <path class="st0" d="M38.92,3.79c-.23.02-.45.1-.65.23L2.82,27.39c-.41.28-.65.75-.65,1.25v9.6c0,.54.31,1.04.8,1.29.48.25,1.06.22,1.51-.09l34.63-22.95,34.63,22.95c.45.31,1.03.34,1.51.09.48-.25.79-.74.8-1.29v-9.6c0-.5-.24-.96-.65-1.25L39.94,4.02c-.3-.2-.66-.28-1.02-.23ZM61.27,16.07,39.11,7.07l33.98,22.35v6.05L39.94,13.49c-.5-.34-1.16-.34-1.66,0L5.13,35.47v-6.05L39.11,7.07Z"/>
  </g>
</svg>