<?xml version="1.0" encoding="UTF-8"?>
<svg id="Livello_1" xmlns="http://www.w3.org/2000/svg" version="1.1" viewBox="0 0 240 240">
  <!-- Generator: Adobe Illustrator 29.6.1, SVG Export Plug-In . SVG Version: 2.1.1 Build 9)  -->
  <defs>
    <style>
      .st0 {
        fill: #fff;
      }
    </style>
  </defs>
  <path class="st0" d="M120.47,98.95q-1.38.66-3.01,1.52"/>
  <path class="st0" d="M117.46,98.95q1.38.66,3.01,1.52"/>
  <g>
    <path class="st0" d="M115.4,43.16c-4.93-8.38-11.16-15.48-20.17-19.72-2.14-1.01-4.19-2.23-6.39-3.11-6.16-2.45-12.38-4.76-18.57-7.13-.15.23-.31.46-.46.69,17.42,13.04,30.45,29.55,33.96,51.44,6.53-1.71,8.33-1.87,16.58-2.37-.14-.94-.27-3.23-.5-4.41-1.02-5.27-1.67-10.68-4.45-15.4Z"/>
    <path class="st0" d="M167.07,18.49c-12.36,2.03-23.07,7.39-29.69,18.42-4.82,8.03-9.28,17.43-13.49,25.83-.07.14,0,.35,0,.22,6.95.7,8.36.99,15.97,3.52.2-.51.5-1.73.77-2.43,1.82-4.78,3.65-9.56,5.45-14.34,3.46-9.18,9.21-16.6,17.5-21.78,5.18-3.24,10.77-5.84,16.2-8.68,1.24-.65,2.56-1.13,3.85-1.69-5.61-.01-11.16.05-16.57.94Z"/>
    <path class="st0" d="M138.42,29.94c.33-.42.33-1.15.4-1.74.32-2.77.18-5.69,1.02-8.29,1.11-3.41,2.99-6.56,4.57-9.89-6.53,2.71-13.32,5.2-18.69,10.28-.94.89-1.69,2.14-2.14,3.37-4.14,11.15-5.09,22.39-.45,33.75.56-1.19,1.14-2.44,1.73-3.68,3.9-8.28,7.8-16.57,13.56-23.8Z"/>
    <path class="st0" d="M113.76,31.52c-.35,3.41,1.08,5.66,3.27,8.18.21-1.68.34-3.02.56-4.34.86-5.1,1.69-10.22,4.15-14.89.27-.52.18-1.35,0-1.97-1.7-5.87-4.52-11.12-8.77-15.56-.31-.33-.69-.6-1.29-1.13.12.89.12,1.41.25,1.89,2.49,9.15,2.78,18.47,1.82,27.8Z"/>
    <path class="st0" d="M92.26,41.89c-.25-.44-.52-.92-.91-1.22-2.84-2.28-9.32-1.45-11.85,1.59,11.83,3.83,16.64,13.8,21.37,24.03.03-.24.12-.5.07-.72-1.82-8.29-4.4-16.3-8.69-23.68Z"/>
    <path class="st0" d="M152.92,42.54c-2.67,5.73-5.15,11.56-7.69,17.35-.15.34-.19.72-.28,1.08,3.48-7.6,7.82-14.55,14-20.35-2.7-.96-4.97-.35-6.03,1.91Z"/>
  </g>
  <path class="st0" d="M118.96,84.32"/>
  <path class="st0" d="M118.96,84.32"/>
  <path class="st0" d="M120,66.02c-37.28,0-67.5,38.54-67.5,86.08s30.22,86.08,67.5,86.08,67.5-38.54,67.5-86.08-30.22-86.08-67.5-86.08ZM184.95,147.2c-.67.59-1.33,1.18-2,1.77-4.44-3.94-8.86-7.85-13.3-11.79,4.08-3.62,8.14-7.22,12.21-10.82,1.7,6.62,2.76,13.6,3.09,20.84ZM133.85,137.04c-4.5,3.99-8.97,7.96-13.46,11.93-4.44-3.94-8.86-7.85-13.3-11.79,4.5-3.99,8.97-7.96,13.46-11.93,4.44,3.94,8.86,7.85,13.3,11.79ZM122.92,123.7c4.5-3.99,8.97-7.96,13.46-11.93,4.44,3.94,8.86,7.85,13.3,11.79-4.5,3.99-8.97,7.95-13.46,11.93-4.44-3.94-8.86-7.85-13.3-11.79ZM104.49,135.49c-4.44-3.94-8.86-7.85-13.3-11.79,4.5-3.99,8.97-7.96,13.46-11.93,4.44,3.94,8.86,7.85,13.3,11.79-4.5,3.99-8.97,7.95-13.46,11.93ZM105.09,139.88c4.44,3.94,8.86,7.85,13.3,11.79-4.5,3.99-8.97,7.95-13.46,11.93-4.44-3.94-8.86-7.85-13.3-11.79,4.5-3.99,8.97-7.96,13.46-11.93ZM117.8,180.28c-4.5,3.99-8.97,7.96-13.46,11.93-4.44-3.94-8.86-7.85-13.3-11.79,4.5-3.99,8.97-7.96,13.46-11.93,4.44,3.94,8.86,7.85,13.3,11.79ZM107.09,165.95c4.5-3.99,8.97-7.96,13.46-11.93,4.44,3.94,8.86,7.85,13.3,11.79-4.5,3.99-8.97,7.95-13.46,11.93-4.44-3.94-8.86-7.85-13.3-11.79ZM136.23,168.49c4.44,3.94,8.86,7.85,13.3,11.79-4.5,3.99-8.97,7.95-13.46,11.93-4.44-3.94-8.86-7.85-13.3-11.79,4.5-3.99,8.97-7.96,13.46-11.93ZM136.12,163.6c-4.44-3.94-8.86-7.85-13.3-11.79,4.5-3.99,8.97-7.96,13.46-11.93,4.44,3.94,8.86,7.85,13.3,11.79-4.5,3.99-8.97,7.95-13.46,11.93ZM138.28,137.19c4.5-3.99,8.97-7.96,13.46-11.93,4.44,3.94,8.86,7.85,13.3,11.79-4.5,3.99-8.97,7.96-13.46,11.93-4.44-3.94-8.86-7.85-13.3-11.79ZM138.67,109.67c4.45-3.94,8.86-7.86,13.3-11.79,4.49,3.98,8.96,7.95,13.46,11.93-4.45,3.94-8.86,7.86-13.3,11.79-4.49-3.98-8.97-7.95-13.46-11.93ZM136.3,107.57c-4.51-4-9-7.98-13.5-11.97,4.45-3.94,8.87-7.86,13.3-11.79,4.51,4,8.99,7.97,13.5,11.96-4.46,3.95-8.88,7.87-13.3,11.79ZM133.93,109.67c-4.51,3.99-8.99,7.97-13.5,11.97-4.5-3.99-8.99-7.97-13.5-11.97,4.5-3.99,8.98-7.96,13.5-11.97,4.51,3.99,8.99,7.97,13.5,11.97ZM104.57,107.57c-4.44-3.94-8.86-7.85-13.3-11.79,4.52-4.01,9.01-7.98,13.5-11.96,4.45,3.94,8.86,7.85,13.3,11.79-4.51,4-9,7.98-13.5,11.96ZM102.2,109.67c-4.5,3.99-8.97,7.95-13.46,11.93-4.44-3.94-8.86-7.85-13.3-11.79,4.5-3.99,8.97-7.96,13.46-11.93,4.44,3.94,8.86,7.85,13.3,11.79ZM88.82,125.26c4.44,3.94,8.86,7.85,13.3,11.79-4.5,3.99-8.97,7.96-13.46,11.93-4.44-3.94-8.86-7.85-13.3-11.79,4.5-3.99,8.97-7.96,13.46-11.93ZM86.65,151.67c-4.5,3.99-8.97,7.95-13.46,11.93-4.44-3.94-8.86-7.85-13.3-11.79,4.5-3.99,8.97-7.96,13.46-11.93,4.44,3.94,8.86,7.85,13.3,11.79ZM88.91,154.01c4.44,3.94,8.86,7.85,13.3,11.79-4.5,3.99-8.97,7.95-13.46,11.93-4.44-3.94-8.86-7.85-13.3-11.79,4.5-3.99,8.97-7.96,13.46-11.93ZM101.91,194.25c-4.44,3.94-8.85,7.85-13.3,11.79-4.49-3.98-8.96-7.94-13.46-11.93,4.44-3.94,8.85-7.85,13.3-11.79,4.49,3.98,8.96,7.94,13.46,11.93ZM104.27,196.35c4.5,3.99,8.99,7.97,13.5,11.96-4.44,3.93-8.85,7.85-13.3,11.79-4.49-3.98-8.98-7.96-13.5-11.96,4.44-3.94,8.86-7.85,13.3-11.79ZM106.64,194.25c4.51-4,9-7.98,13.5-11.97,4.5,3.99,8.99,7.97,13.5,11.97-4.5,3.99-8.99,7.97-13.5,11.97-4.51-4-8.99-7.97-13.5-11.97ZM136,196.35c4.42,3.92,8.84,7.84,13.3,11.79-4.51,4-8.99,7.97-13.5,11.96-4.43-3.93-8.85-7.84-13.3-11.79,4.5-3.99,8.98-7.96,13.5-11.97ZM138.37,194.25c4.49-3.98,8.97-7.95,13.46-11.93,4.44,3.93,8.85,7.84,13.3,11.79-4.5,3.99-8.97,7.95-13.46,11.93-4.44-3.93-8.85-7.85-13.3-11.79ZM151.67,177.73c-4.44-3.94-8.86-7.85-13.3-11.79,4.5-3.99,8.97-7.96,13.46-11.93,4.44,3.94,8.86,7.85,13.3,11.79-4.5,3.99-8.97,7.95-13.46,11.93ZM154.18,151.82c4.5-3.99,8.97-7.96,13.46-11.93,4.44,3.94,8.86,7.85,13.3,11.79-4.5,3.99-8.97,7.95-13.46,11.93-4.44-3.94-8.86-7.85-13.3-11.79ZM167.41,135.49c-4.44-3.94-8.86-7.85-13.3-11.79,4.5-3.99,8.97-7.96,13.46-11.93,4.44,3.94,8.86,7.85,13.3,11.79-4.5,3.99-8.97,7.95-13.46,11.93ZM178.48,117.75c-2.86-2.54-5.72-5.07-8.61-7.63,1.3-1.15,2.58-2.29,3.88-3.44,1.85,3.59,3.44,7.26,4.73,11.08ZM161.7,89.29c4.07,4.44,7.54,9.3,10.51,14.55-1.58,1.4-3.14,2.78-4.72,4.18-4.49-3.98-8.96-7.94-13.46-11.93,2.58-2.28,5.11-4.53,7.67-6.8ZM145.58,76c4.55,2.49,8.71,5.54,12.52,9.08.57.53,1.13,1.08,1.72,1.64-2.64,2.34-5.24,4.64-7.86,6.97-4.51-4-8.99-7.97-13.48-11.95.04-.05.06-.08.08-.1,2.09-1.85,4.18-3.69,6.25-5.56.28-.25.46-.24.76-.07ZM142.13,74.28c-2.03,1.8-4.01,3.56-6.03,5.34-3.74-3.31-7.45-6.61-11.16-9.9,6,.49,11.7,2.04,17.19,4.55ZM120.44,69.93c4.44,3.94,8.86,7.85,13.3,11.79-4.45,3.94-8.87,7.86-13.3,11.79-4.44-3.93-8.86-7.85-13.3-11.79,4.45-3.95,8.87-7.87,13.3-11.79ZM115.98,69.68c-3.73,3.31-7.47,6.62-11.21,9.94-2.05-1.81-4.08-3.62-6.14-5.45,5.56-2.51,11.31-4.04,17.36-4.49ZM81.15,86.3c1.46-1.31,2.89-2.65,4.39-3.91,3.04-2.54,6.32-4.71,9.79-6.59.17-.09.28-.11.45.04,2.15,1.92,4.32,3.83,6.48,5.75.05.04.08.09.13.16-4.5,3.99-8.99,7.97-13.48,11.95-2.68-2.38-5.34-4.74-8.05-7.13.11-.1.2-.18.28-.26ZM78.69,88.82c2.63,2.33,5.23,4.63,7.85,6.96-4.5,3.99-8.97,7.95-13.46,11.93-1.66-1.47-3.3-2.92-4.94-4.38,2.99-5.24,6.46-10.09,10.55-14.51ZM66.6,106.17c1.38,1.23,2.74,2.43,4.11,3.65-3.07,2.72-6.1,5.4-9.12,8.09,1.37-4.04,3.04-7.93,5.01-11.73ZM73.16,111.77c4.44,3.94,8.86,7.85,13.3,11.79-4.5,3.99-8.97,7.95-13.46,11.93-4.44-3.94-8.86-7.85-13.3-11.79,4.5-3.99,8.97-7.96,13.46-11.93ZM58.42,126.74c4.07,3.61,8.13,7.21,12.21,10.82-4.44,3.94-8.86,7.85-13.3,11.79-.67-.59-1.34-1.18-2-1.77.32-7.24,1.39-14.22,3.09-20.84ZM55.89,155.38c.52-.46,1.03-.92,1.55-1.38,4.49,3.98,8.96,7.94,13.46,11.93-3.99,3.54-7.97,7.06-11.96,10.6-1.71-6.72-2.77-13.81-3.05-21.16ZM73.01,168.49c4.44,3.94,8.86,7.85,13.3,11.79-4.5,3.99-8.97,7.96-13.46,11.93-4.44-3.94-8.86-7.85-13.3-11.79,4.5-3.99,8.97-7.96,13.46-11.93ZM61.29,186.02c3.03,2.68,6.06,5.37,9.12,8.09-1.37,1.22-2.73,2.42-4.11,3.65-1.97-3.8-3.65-7.69-5.01-11.73ZM78.39,215.1c-4.09-4.42-7.56-9.27-10.55-14.51,1.64-1.46,3.28-2.91,4.94-4.38,4.49,3.98,8.96,7.94,13.46,11.93-2.62,2.33-5.22,4.63-7.85,6.96ZM95.03,228.12c-3.48-1.87-6.76-4.05-9.79-6.59-1.5-1.26-2.93-2.6-4.39-3.91-.09-.08-.18-.16-.28-.26,2.7-2.4,5.36-4.75,8.05-7.13,4.49,3.98,8.98,7.96,13.48,11.95-.05.06-.09.11-.13.16-2.16,1.91-4.32,3.83-6.48,5.75-.17.15-.28.12-.45.04ZM98.33,229.75c2.06-1.83,4.1-3.63,6.14-5.45,3.74,3.32,7.48,6.63,11.21,9.94-6.05-.45-11.8-1.98-17.36-4.49ZM106.84,222.2c4.44-3.94,8.86-7.85,13.3-11.79,4.43,3.93,8.85,7.85,13.3,11.79-4.44,3.94-8.86,7.85-13.3,11.79-4.42-3.92-8.84-7.84-13.3-11.79ZM124.64,234.2c3.71-3.29,7.43-6.58,11.16-9.9,2.01,1.79,4,3.55,6.03,5.34-5.49,2.52-11.19,4.07-17.19,4.55ZM157.81,218.85c-3.82,3.53-7.97,6.58-12.52,9.08-.3.17-.49.17-.76-.07-2.07-1.87-4.17-3.71-6.25-5.56-.02-.02-.04-.05-.08-.1,4.49-3.98,8.97-7.95,13.48-11.95,2.62,2.33,5.23,4.63,7.86,6.97-.59.56-1.15,1.11-1.72,1.64ZM161.7,214.94c-2.55-2.26-5.09-4.51-7.67-6.8,4.5-3.99,8.97-7.96,13.46-11.93,1.58,1.4,3.14,2.78,4.72,4.18-2.97,5.25-6.44,10.11-10.51,14.55ZM173.74,197.55c-1.3-1.15-2.58-2.29-3.88-3.44,2.89-2.56,5.75-5.1,8.61-7.63-1.3,3.82-2.88,7.49-4.73,11.08ZM167.26,192.21c-4.44-3.94-8.86-7.85-13.3-11.79,4.5-3.99,8.97-7.96,13.46-11.93,4.44,3.94,8.86,7.85,13.3,11.79-4.5,3.99-8.97,7.95-13.46,11.93ZM181.61,176.55c-3.99-3.54-7.97-7.06-11.96-10.6,4.5-3.99,8.98-7.96,13.46-11.93.52.46,1.04.92,1.55,1.38-.29,7.35-1.35,14.44-3.05,21.16Z"/>
</svg>