<?xml version="1.0" encoding="UTF-8"?>
<svg id="Livello_1" xmlns="http://www.w3.org/2000/svg" version="1.1" viewBox="0 0 240 240">
  <!-- Generator: Adobe Illustrator 29.6.1, SVG Export Plug-In . SVG Version: 2.1.1 Build 9)  -->
  <defs>
    <style>
      .st0 {
        fill: #009587;
      }

      .st1 {
        fill: #48b6a1;
      }

      .st2 {
        fill: #c78737;
      }

      .st3 {
        fill: #fce47b;
      }

      .st4 {
        fill: #c88836;
      }
    </style>
  </defs>
  <ellipse class="st4" cx="120" cy="142.93" rx="73.37" ry="93.57"/>
  <path class="st3" d="M186.01,173.56c-4.83-4.28-9.63-8.53-14.46-12.81-4.88,4.32-9.74,8.64-14.63,12.97,4.83,4.28,9.63,8.53,14.46,12.81,4.88-4.32,9.74-8.64,14.63-12.97Z"/>
  <path class="st3" d="M152.1,173.56c-4.83-4.28-9.63-8.53-14.46-12.81-4.88,4.32-9.74,8.64-14.63,12.97,4.83,4.28,9.63,8.53,14.46,12.81,4.88-4.32,9.74-8.64,14.63-12.97Z"/>
  <path class="st3" d="M117.61,173.56c-4.83-4.28-9.63-8.53-14.46-12.81-4.88,4.32-9.74,8.64-14.63,12.97,4.83,4.28,9.63,8.53,14.46,12.81,4.88-4.32,9.74-8.64,14.63-12.97Z"/>
  <path class="st3" d="M83.38,173.56c-4.83-4.28-9.63-8.53-14.46-12.81-4.88,4.32-9.74,8.64-14.63,12.97,4.83,4.28,9.63,8.53,14.46,12.81,4.88-4.32,9.74-8.64,14.63-12.97Z"/>
  <path class="st2" d="M120.51,85.16q-1.5.72-3.28,1.65"/>
  <path class="st2" d="M117.24,85.16q1.5.72,3.28,1.65"/>
  <path class="st1" d="M118.87,69.26"/>
  <path class="st1" d="M118.87,69.26"/>
  <path class="st3" d="M120.47,83.81c-4.91,4.35-9.78,8.67-14.67,13.01,4.9,4.35,9.78,8.67,14.67,13.01,4.9-4.34,9.77-8.66,14.67-13.01-4.9-4.34-9.77-8.66-14.67-13.01Z"/>
  <path class="st3" d="M152.18,81.72c-4.9-4.35-9.77-8.66-14.67-13.01-4.81,4.27-9.62,8.53-14.46,12.81,4.89,4.34,9.76,8.66,14.67,13.01,4.81-4.26,9.61-8.52,14.46-12.81Z"/>
  <path class="st3" d="M88.77,81.72c4.83,4.28,9.63,8.53,14.46,12.81,4.89-4.33,9.77-8.66,14.67-13.01-4.82-4.28-9.62-8.53-14.46-12.81-4.88,4.33-9.76,8.65-14.67,13.01Z"/>
  <path class="st3" d="M100.66,96.81c-4.83-4.28-9.63-8.53-14.46-12.81-4.88,4.32-9.74,8.64-14.63,12.97,4.83,4.28,9.63,8.53,14.46,12.81,4.88-4.32,9.74-8.64,14.63-12.97Z"/>
  <path class="st3" d="M154.75,84c-4.82,4.27-9.62,8.53-14.46,12.81,4.88,4.33,9.75,8.64,14.63,12.97,4.82-4.27,9.62-8.53,14.46-12.81-4.89-4.33-9.75-8.64-14.63-12.97Z"/>
  <path class="st3" d="M134.93,66.43c-4.83-4.28-9.63-8.53-14.45-12.81-4.81,4.26-9.61,8.52-14.46,12.81,4.83,4.28,9.63,8.54,14.46,12.81,4.82-4.27,9.62-8.53,14.46-12.81Z"/>
  <path class="st3" d="M77.45,71.68c2.94,2.61,5.83,5.17,8.75,7.75,4.88-4.33,9.76-8.65,14.65-12.99-.06-.07-.09-.12-.14-.17-2.35-2.08-4.7-4.16-7.04-6.25-.18-.16-.31-.13-.49-.04-3.78,2.04-7.35,4.4-10.64,7.16-1.63,1.36-3.18,2.83-4.77,4.25-.1.09-.19.17-.31.28Z"/>
  <path class="st3" d="M154.75,79.44c2.85-2.53,5.68-5.04,8.54-7.57-.64-.61-1.25-1.21-1.87-1.79-4.15-3.84-8.67-7.15-13.61-9.86-.33-.18-.53-.19-.83.08-2.25,2.03-4.53,4.03-6.8,6.04-.02.02-.04.05-.09.11,4.88,4.32,9.75,8.65,14.65,12.99Z"/>
  <path class="st3" d="M69,94.69c4.88-4.33,9.74-8.63,14.63-12.97-2.85-2.53-5.68-5.03-8.53-7.57-4.45,4.81-8.22,10.08-11.47,15.77,1.79,1.59,3.56,3.16,5.37,4.76Z"/>
  <path class="st3" d="M157,82.05c4.9,4.34,9.76,8.65,14.63,12.97,1.72-1.52,3.41-3.03,5.13-4.55-3.23-5.71-7-10.99-11.42-15.81-2.78,2.46-5.53,4.91-8.33,7.39Z"/>
  <path class="st3" d="M103.45,64.15c4.07-3.61,8.13-7.21,12.19-10.81-6.57.49-12.82,2.16-18.87,4.89,2.24,1.99,4.45,3.95,6.68,5.92Z"/>
  <path class="st3" d="M137.5,64.15c2.19-1.94,4.35-3.86,6.55-5.81-5.97-2.73-12.16-4.42-18.69-4.95,4.04,3.58,8.07,7.16,12.14,10.76Z"/>
  <path class="st3" d="M56.5,105.76c3.29-2.92,6.58-5.84,9.92-8.79-1.49-1.32-2.97-2.63-4.47-3.96-2.15,4.13-3.96,8.36-5.45,12.75Z"/>
  <path class="st3" d="M174.2,97.3c3.14,2.78,6.25,5.54,9.36,8.3-1.41-4.15-3.13-8.14-5.14-12.04-1.41,1.25-2.8,2.49-4.22,3.74Z"/>
  <path class="st3" d="M120.15,201.76c-4.91-4.35-9.78-8.67-14.67-13.01,4.9-4.35,9.78-8.67,14.67-13.01,4.9,4.34,9.77,8.66,14.67,13.01-4.9,4.34-9.77,8.66-14.67,13.01Z"/>
  <path class="st3" d="M151.85,203.85c-4.9,4.35-9.77,8.66-14.67,13.01-4.81-4.27-9.62-8.53-14.46-12.81,4.89-4.34,9.76-8.66,14.67-13.01,4.81,4.26,9.61,8.52,14.46,12.81Z"/>
  <path class="st3" d="M88.45,203.85c4.83-4.28,9.63-8.53,14.46-12.81,4.89,4.33,9.77,8.66,14.67,13.01-4.82,4.28-9.62,8.53-14.46,12.81-4.88-4.33-9.76-8.65-14.67-13.01Z"/>
  <path class="st3" d="M100.33,188.75c-4.83,4.28-9.63,8.53-14.46,12.81-4.88-4.32-9.74-8.64-14.63-12.97,4.83-4.28,9.63-8.53,14.46-12.81,4.88,4.32,9.74,8.64,14.63,12.97Z"/>
  <path class="st3" d="M154.42,201.57c-4.82-4.27-9.62-8.53-14.46-12.81,4.88-4.33,9.75-8.64,14.63-12.97,4.82,4.27,9.62,8.53,14.46,12.81-4.89,4.33-9.75,8.64-14.63,12.97Z"/>
  <path class="st3" d="M134.6,219.14c-4.83,4.28-9.63,8.53-14.45,12.81-4.81-4.26-9.61-8.52-14.46-12.81,4.83-4.28,9.63-8.54,14.46-12.81,4.82,4.27,9.62,8.53,14.46,12.81Z"/>
  <path class="st3" d="M77.13,213.88c2.94-2.61,5.83-5.17,8.75-7.75,4.88,4.33,9.76,8.65,14.65,12.99-.06.07-.09.12-.14.17-2.35,2.08-4.7,4.16-7.04,6.25-.18.16-.31.13-.49.04-3.78-2.04-7.35-4.4-10.64-7.16-1.63-1.36-3.18-2.83-4.77-4.25-.1-.09-.19-.17-.31-.28Z"/>
  <path class="st3" d="M154.42,206.13c2.85,2.53,5.68,5.04,8.54,7.57-.64.61-1.25,1.21-1.87,1.79-4.15,3.84-8.67,7.15-13.61,9.86-.33.18-.53.19-.83-.08-2.25-2.03-4.53-4.03-6.8-6.04-.02-.02-.04-.05-.09-.11,4.88-4.32,9.75-8.65,14.65-12.99Z"/>
  <path class="st3" d="M68.67,190.88c4.88,4.33,9.74,8.63,14.63,12.97-2.85,2.53-5.68,5.03-8.53,7.57-4.45-4.81-8.22-10.08-11.47-15.77,1.79-1.59,3.56-3.16,5.37-4.76Z"/>
  <path class="st3" d="M157,203.85c4.9-4.34,9.76-8.65,14.63-12.97,1.72,1.52,3.41,3.03,5.13,4.55-3.23,5.71-7,10.99-11.42,15.81-2.78-2.46-5.53-4.91-8.33-7.39Z"/>
  <path class="st3" d="M103.12,221.42c4.07,3.61,8.13,7.21,12.19,10.81-6.57-.49-12.82-2.16-18.87-4.89,2.24-1.99,4.45-3.95,6.68-5.92Z"/>
  <path class="st3" d="M137.18,221.42c2.19,1.94,4.35,3.86,6.55,5.81-5.97,2.73-12.16,4.42-18.69,4.95,4.04-3.58,8.07-7.16,12.14-10.76Z"/>
  <path class="st3" d="M56.18,179.81c3.29,2.92,6.58,5.84,9.92,8.79-1.49,1.32-2.97,2.63-4.47,3.96-2.15-4.13-3.96-8.36-5.45-12.75Z"/>
  <path class="st3" d="M174.2,188.6c3.14-2.78,6.25-5.54,9.36-8.3-1.41,4.15-3.13,8.14-5.14,12.04-1.41-1.25-2.8-2.49-4.22-3.74Z"/>
  <path class="st3" d="M117.77,111.91c-4.83-4.28-9.63-8.53-14.46-12.81-4.88,4.32-9.74,8.64-14.63,12.97,4.83,4.28,9.63,8.53,14.46,12.81,4.88-4.32,9.74-8.64,14.63-12.97Z"/>
  <path class="st3" d="M152.26,111.91c-4.83-4.28-9.63-8.53-14.46-12.81-4.88,4.32-9.74,8.64-14.63,12.97,4.83,4.28,9.63,8.53,14.46,12.81,4.88-4.32,9.74-8.64,14.63-12.97Z"/>
  <path class="st3" d="M186.17,111.91c-4.83-4.28-9.63-8.53-14.46-12.81-4.88,4.32-9.74,8.64-14.63,12.97,4.83,4.28,9.63,8.53,14.46,12.81,4.88-4.32,9.74-8.64,14.63-12.97Z"/>
  <path class="st3" d="M83.54,111.91c-4.83-4.28-9.63-8.53-14.46-12.81-4.88,4.32-9.74,8.64-14.63,12.97,4.83,4.28,9.63,8.53,14.46,12.81,4.88-4.32,9.74-8.64,14.63-12.97Z"/>
  <path class="st3" d="M100.56,126.57c-4.83-4.28-9.63-8.53-14.46-12.81-4.88,4.32-9.74,8.64-14.63,12.97,4.83,4.28,9.63,8.53,14.46,12.81,4.88-4.32,9.74-8.64,14.63-12.97Z"/>
  <path class="st3" d="M135.05,126.57c-4.83-4.28-9.63-8.53-14.46-12.81-4.88,4.32-9.74,8.64-14.63,12.97,4.83,4.28,9.63,8.53,14.46,12.81,4.88-4.32,9.74-8.64,14.63-12.97Z"/>
  <path class="st3" d="M168.96,126.57c-4.83-4.28-9.63-8.53-14.46-12.81-4.88,4.32-9.74,8.64-14.63,12.97,4.83,4.28,9.63,8.53,14.46,12.81,4.88-4.32,9.74-8.64,14.63-12.97Z"/>
  <path class="st3" d="M83.75,142.47c-4.83-4.28-9.63-8.53-14.46-12.81-4.88,4.32-9.74,8.64-14.63,12.97,4.83,4.28,9.63,8.53,14.46,12.81,4.88-4.32,9.74-8.64,14.63-12.97Z"/>
  <path class="st3" d="M118.24,142.47c-4.83-4.28-9.63-8.53-14.46-12.81-4.88,4.32-9.74,8.64-14.63,12.97,4.83,4.28,9.63,8.53,14.46,12.81,4.88-4.32,9.74-8.64,14.63-12.97Z"/>
  <path class="st3" d="M152.15,142.47c-4.83-4.28-9.63-8.53-14.46-12.81-4.88,4.32-9.74,8.64-14.63,12.97,4.83,4.28,9.63,8.53,14.46,12.81,4.88-4.32,9.74-8.64,14.63-12.97Z"/>
  <path class="st3" d="M186.24,142.47c-4.83-4.28-9.63-8.53-14.46-12.81-4.88,4.32-9.74,8.64-14.63,12.97,4.83,4.28,9.63,8.53,14.46,12.81,4.88-4.32,9.74-8.64,14.63-12.97Z"/>
  <path class="st3" d="M187.24,114.96c-4.42,3.92-8.84,7.83-13.27,11.77,4.83,4.28,9.63,8.53,14.46,12.81.73-.64,1.45-1.29,2.18-1.93-.35-7.87-1.51-15.46-3.36-22.65Z"/>
  <path class="st3" d="M53.06,115.36c4.42,3.92,8.84,7.83,13.28,11.77-4.83,4.28-9.63,8.53-14.46,12.81-.73-.64-1.45-1.29-2.18-1.93.35-7.87,1.51-15.46,3.36-22.65Z"/>
  <path class="st3" d="M52,145c4.88,4.32,9.74,8.64,14.63,12.97-4.34,3.85-8.66,7.68-13,11.53-1.86-7.3-3.01-15.01-3.32-23,.56-.5,1.12-1,1.69-1.5Z"/>
  <path class="st3" d="M188.6,145.01c-4.88,4.32-9.74,8.64-14.64,12.97,4.34,3.85,8.66,7.68,13,11.53,1.86-7.3,3.01-15.01,3.32-23-.56-.5-1.12-1-1.69-1.5Z"/>
  <path class="st3" d="M100.66,157.83c-4.83-4.28-9.63-8.53-14.46-12.81-4.88,4.32-9.74,8.64-14.63,12.97,4.83,4.28,9.63,8.53,14.46,12.81,4.88-4.32,9.74-8.64,14.63-12.97Z"/>
  <path class="st3" d="M135.05,157.83c-4.83-4.28-9.63-8.53-14.46-12.81-4.88,4.32-9.74,8.64-14.63,12.97,4.83,4.28,9.63,8.53,14.46,12.81,4.88-4.32,9.74-8.64,14.63-12.97Z"/>
  <path class="st3" d="M169.06,157.83c-4.83-4.28-9.63-8.53-14.46-12.81-4.88,4.32-9.74,8.64-14.63,12.97,4.83,4.28,9.63,8.53,14.46,12.81,4.88-4.32,9.74-8.64,14.63-12.97Z"/>
  <g id="surface1">
    <path class="st0" d="M119.41,3.52c-.45.04-.87.2-1.25.45L49.49,49.22c-.79.55-1.26,1.45-1.25,2.41v18.6c.01,1.05.6,2.01,1.54,2.49.93.49,2.06.42,2.93-.17L119.77,28.11l67.06,44.44c.87.59,2,.66,2.93.17.94-.48,1.53-1.44,1.54-2.49v-18.6c.01-.96-.46-1.87-1.25-2.41L121.38,3.97c-.58-.38-1.27-.54-1.97-.45ZM162.69,27.31,119.77,9.87l65.81,43.28v11.71L121.38,22.3c-.97-.66-2.25-.66-3.22,0l-64.2,42.56v-11.71L119.77,9.87Z"/>
  </g>
</svg>